<svg xmlns="http://www.w3.org/2000/svg" width="25" height="26" viewBox="0 0 25 26">
  <path fill="#2CA6BD" fill-rule="evenodd" d="M15.2735152,7.53977587 C15.2735152,3.38890549 11.8537492,0 7.63949215,0 C3.42523507,0 0.00546908316,3.38890549 0.00546908316,7.53977587 C0.00546908316,11.6906462 3.42523507,15.0795517 7.63949215,15.0795517 C9.35514587,15.0795517 10.9325866,14.5223268 12.2106809,13.5784199 L17.8872487,19.1849065 C18.025421,19.321373 18.1981365,19.3896063 18.3708519,19.3896063 C18.5435674,19.3896063 18.7277837,19.321373 18.8544552,19.1849065 C19.1192991,18.9233323 19.1192991,18.491215 18.8544552,18.218282 L13.2354729,12.6572708 C14.4905249,11.3153633 15.2735152,9.51854057 15.2735152,7.53977587 Z M1.38719271,7.53977587 C1.38719271,4.13947141 4.18518307,1.36466532 7.63949215,1.36466532 C11.0823004,1.36466532 13.8917916,4.12811258 13.8917916,7.53977587 C13.8917916,10.9514392 11.0938012,13.7148864 7.63949215,13.7148864 C4.18518307,13.7148864 1.38719271,10.9400803 1.38719271,7.53977587 L1.38719271,7.53977587 Z"/>
</svg>
