<svg xmlns="http://www.w3.org/2000/svg" width="20" height="20" viewBox="0 0 20 20" xmlns:xlink="http://www.w3.org/1999/xlink">
  <defs>
    <circle id="a" cx="10" cy="10" r="10"/>
    <mask id="b" width="20" height="20" x="0" y="0" fill="white">
      <use xlink:href="#a"/>
    </mask>
  </defs>
  <g fill="none" fill-rule="evenodd" transform="translate(-.06 .364)">
    <use stroke="#7F7F7F" stroke-width="2" mask="url(#b)" xlink:href="#a"/>
    <path fill="#7F7F7F" d="M11.6750561,11.3427993 C12.4031432,10.5643252 12.8573754,9.52194345 12.8573754,8.37401255 C12.8573754,5.96598883 10.8734836,4 8.42868771,4 C5.98389178,4 4,5.96598883 4,8.37401255 C4,10.7820363 5.98389178,12.7480251 8.42868771,12.7480251 C9.42398134,12.7480251 10.3390942,12.424765 11.0805487,11.877181 L14.3736676,15.1296441 C14.4538248,15.2088117 14.5540214,15.2483956 14.6542179,15.2483956 C14.7544145,15.2483956 14.8612829,15.2088117 14.9347683,15.1296441 C15.0884108,14.9778983 15.0884108,14.7272163 14.9347683,14.568881 L11.6750561,11.3427993 L11.6750561,11.3427993 Z M4.80157244,8.37401255 C4.80157244,6.40141089 6.42475662,4.79167648 8.42868771,4.79167648 C10.4259469,4.79167648 12.055803,6.39482135 12.055803,8.37401255 C12.055803,10.3532037 10.4326188,11.9563486 8.42868771,11.9563486 C6.42475662,11.9563486 4.80157244,10.3466142 4.80157244,8.37401255 L4.80157244,8.37401255 Z"/>
  </g>
</svg>
