<svg xmlns="http://www.w3.org/2000/svg" width="20" height="20" viewBox="0 0 20 20">
  <g fill="#A6A6A6" fill-rule="evenodd">
    <path d="M10,19.9316239 C15.4700855,19.9316239 19.9316239,15.4871795 19.9316239,10 C19.9316239,4.51282051 15.4700855,0.0683760684 10,0.0683760684 C4.52991453,0.0683760684 0.0683760684,4.52991453 0.0683760684,10 C0.0683760684,15.4700855 4.52991453,19.9316239 10,19.9316239 L10,19.9316239 Z M10,1.47008547 C14.7008547,1.47008547 18.5299145,5.2991453 18.5299145,10 C18.5299145,14.7008547 14.7008547,18.5299145 10,18.5299145 C5.2991453,18.5299145 1.47008547,14.7008547 1.47008547,10 C1.47008547,5.2991453 5.2991453,1.47008547 10,1.47008547 L10,1.47008547 Z"/>
    <path d="M6.27350427,13.6239316 C6.41025641,13.7606838 6.58119658,13.8290598 6.76923077,13.8290598 C6.95726496,13.8290598 7.12820513,13.7606838 7.26495726,13.6239316 L10,10.8888889 L12.7350427,13.6239316 C12.8717949,13.7606838 13.042735,13.8290598 13.2307692,13.8290598 C13.4188034,13.8290598 13.5897436,13.7606838 13.7264957,13.6239316 C14,13.3504274 14,12.9059829 13.7264957,12.6324786 L10.991453,9.8974359 L13.7264957,7.16239316 C14,6.88888889 14,6.44444444 13.7264957,6.17094017 C13.4529915,5.8974359 13.008547,5.8974359 12.7350427,6.17094017 L10,8.90598291 L7.26495726,6.17094017 C6.99145299,5.8974359 6.54700855,5.8974359 6.27350427,6.17094017 C6,6.44444444 6,6.88888889 6.27350427,7.16239316 L9.00854701,9.8974359 L6.27350427,12.6324786 C6,12.9059829 6,13.3504274 6.27350427,13.6239316 L6.27350427,13.6239316 Z"/>
  </g>
</svg>
