<svg xmlns="http://www.w3.org/2000/svg" width="193" height="115" viewBox="0 0 193 115">
  <g fill="none" fill-rule="evenodd">
    <rect width="193" height="115" fill="#A51140"/>
    <g fill="#FFFFFF" transform="translate(51 22)">
      <path d="M15.45 10.45L10.92 7.45 19.22 1 12.91 1 4.48 7.73 4.48 1 .17 1 .17 15 4.48 15 4.48 12.26 7.48 10 12.68 13.46C14.1691727 14.4952576 15.9363821 15.0564424 17.75 15.07 18.3956249 15.083352 19.0395609 14.9990672 19.66 14.82L19.66 11.55C18.1734701 11.6150802 16.7021238 11.2280673 15.44 10.44M56.61 11.39C55.3418101 11.6340921 54.0510857 11.7413731 52.76 11.71 51.4987478 11.7407541 50.2379157 11.6334492 49 11.39 47.39 11 47.16 10.3 47.16 8 47.16 5.35 47.39 4.8 48.98 4.47 50.2271395 4.24648667 51.4932169 4.14600434 52.76 4.17 54.049969 4.14682047 55.339192 4.2472794 56.61 4.47 58.2 4.79 58.43 5.35 58.43 8 58.43 10.3 58.2 11 56.61 11.39M59.61 1.21C57.3718799.606533848 55.0568983.336958115 52.74.41 50.4330731.339040931 48.1282892.608606299 45.9 1.21 43.04 2.13 42.79 4.53 42.77 7.98 42.75 11.43 42.98 13.83 45.88 14.75 48.1177833 15.3559764 50.4326452 15.6289077 52.75 15.56 55.0740029 15.6302954 57.395663 15.3573571 59.64 14.75 62.54 13.83 62.75 11.41 62.75 7.98 62.75 4.55 62.47 2.13 59.62 1.21M35.67 9.34C35.8308957 10.2354353 35.2788479 11.1048019 34.4 11.34 33.2330181 11.6303169 32.0321389 11.7615054 30.83 11.73 29.6444066 11.7603057 28.4602045 11.6291015 27.31 11.34 26.4311521 11.1048019 25.8791043 10.2354353 26.04 9.34L26.04 1 21.59 1 21.59 10.15C21.5415934 10.9532904 21.6502883 11.7583121 21.91 12.52 23.06 15.26 27.91 15.52 30.85 15.52 33.79 15.52 38.61 15.24 39.77 12.52 40.0299624 11.7583712 40.138664 10.9532999 40.09 10.15L40.09 1 35.67 1 35.67 9.34z"/>
      <polygon points="79.97 9.27 70.11 1.02 65.73 1.02 65.73 15.03 70.06 15.03 70.06 6.59 80.11 15.03 84.14 15.03 84.14 1.02 79.97 1.02"/>
      <rect width="4.31" height="14.01" x="87.57" y="1.02"/>
    </g>
    <path stroke="#FFFFFF" stroke-width=".5" d="M32,53 L161.001172,53"/>
    <path fill="#FFFFFF" d="M21.505 74C21.5916671 74.333335 21.696666 74.6049989 21.82 74.815 21.943334 75.0250011 22.0783326 75.1883327 22.225 75.305 22.3716674 75.4216672 22.5249992 75.5016665 22.685 75.545 22.8450008 75.5883336 23.0083325 75.61 23.175 75.61 23.3283341 75.61 23.4933324 75.5883336 23.67 75.545 23.8466676 75.5016665 24.0083326 75.4300005 24.155 75.33 24.3016674 75.2299995 24.4233329 75.0950009 24.52 74.925 24.6166672 74.7549992 24.665 74.5400013 24.665 74.28 24.665 74.0399988 24.5833341 73.8300009 24.42 73.65 24.2566658 73.4699991 24.0500012 73.2966675 23.8 73.13 23.5499987 72.9633325 23.2816681 72.7966675 22.995 72.63 22.7083319 72.4633325 22.4400012 72.275001 22.19 72.065 21.9399987 71.854999 21.7333342 71.6150014 21.57 71.345 21.4066658 71.0749986 21.325 70.7533352 21.325 70.38 21.325 70.0199982 21.391666 69.7166679 21.525 69.47 21.658334 69.2233321 21.8333323 69.0250008 22.05 68.875 22.2666678 68.7249992 22.513332 68.616667 22.79 68.55 23.066668 68.483333 23.3516652 68.45 23.645 68.45 23.9450015 68.45 24.2349986 68.4799997 24.515 68.54 24.7950014 68.6000003 25.0483322 68.6766662 25.275 68.77 25.341667 68.7966668 25.375 68.8599995 25.375 68.96L25.375 70.3C25.375 70.3533336 25.3583335 70.3949999 25.325 70.425 25.2916665 70.4550001 25.2516669 70.47 25.205 70.47 25.1583331 70.47 25.1166669 70.4550001 25.08 70.425 25.0433331 70.3949999 25.0183334 70.346667 25.005 70.28 24.9716665 70.0333321 24.9066671 69.8266675 24.81 69.66 24.7133328 69.4933325 24.598334 69.3600005 24.465 69.26 24.331666 69.1599995 24.1833342 69.0900002 24.02 69.05 23.8566659 69.0099998 23.6916675 68.99 23.525 68.99 23.3849993 68.99 23.2466673 69.0099998 23.11 69.05 22.9733326 69.0900002 22.8500006 69.1549996 22.74 69.245 22.6299995 69.3350004 22.5400004 69.4533326 22.47 69.6 22.3999996 69.7466674 22.365 69.9233323 22.365 70.13 22.365 70.4100014 22.4449992 70.6516657 22.605 70.855 22.7650008 71.0583343 22.9666654 71.2449992 23.21 71.415 23.4533346 71.5850009 23.7149986 71.7483325 23.995 71.905 24.2750014 72.0616674 24.5366654 72.234999 24.78 72.425 25.0233346 72.6150009 25.2249992 72.8333321 25.385 73.08 25.5450008 73.3266679 25.625 73.6233316 25.625 73.97 25.625 74.370002 25.553334 74.7066653 25.41 74.98 25.266666 75.2533347 25.0766678 75.4733325 24.84 75.64 24.6033321 75.8066675 24.3316682 75.9249997 24.025 75.995 23.7183318 76.0650003 23.4050016 76.1 23.085 76.1 22.7649984 76.1 22.4516682 76.0783336 22.145 76.035 21.8383318 75.9916665 21.5583346 75.9133339 21.305 75.8 21.2249996 75.7666665 21.185 75.6733341 21.185 75.52L21.185 74.05C21.185 73.983333 21.1999998 73.9350002 21.23 73.905 21.2600001 73.8749998 21.2949998 73.86 21.335 73.86 21.3683335 73.86 21.4016665 73.8716665 21.435 73.895 21.4683335 73.9183334 21.4916666 73.9533331 21.505 74zM34.575 72.46C34.7816677 72.9600025 34.9549993 73.3849983 35.095 73.735 35.2350007 74.0850018 35.3533329 74.3766655 35.45 74.61 35.5466672 74.8433345 35.628333 75.0249993 35.695 75.155 35.761667 75.2850007 35.8266663 75.383333 35.89 75.45 35.9533336 75.516667 36.0166663 75.5616665 36.08 75.585 36.1433336 75.6083334 36.2249995 75.6266666 36.325 75.64 36.3783336 75.6533334 36.4183332 75.6783332 36.445 75.715 36.4716668 75.7516668 36.485 75.7933331 36.485 75.84 36.485 75.8800002 36.4750001 75.9166665 36.455 75.95 36.4349999 75.9833335 36.4016669 76 36.355 76L33.565 76C33.5183331 76 33.4850001 75.9833335 33.465 75.95 33.4449999 75.9166665 33.435 75.8800002 33.435 75.84 33.435 75.7933331 33.4483332 75.7500002 33.475 75.71 33.5016668 75.6699998 33.5416664 75.6466667 33.595 75.64 33.8883348 75.6199999 34.0983327 75.5733337 34.225 75.5 34.3516673 75.4266663 34.415 75.3133341 34.415 75.16 34.415 75.026666 34.3616672 74.826668 34.255 74.56L33.935 73.78 31.055 73.78 30.495 75.15C30.4749999 75.2033336 30.465 75.2433332 30.465 75.27 30.465 75.3833339 30.5399992 75.4649998 30.69 75.515 30.8400008 75.5650003 31.048332 75.6066665 31.315 75.64 31.3550002 75.6466667 31.3883332 75.6699998 31.415 75.71 31.4416668 75.7500002 31.455 75.7933331 31.455 75.84 31.455 75.8800002 31.4416668 75.9166665 31.415 75.95 31.3883332 75.9833335 31.3450003 76 31.285 76L29.015 76C28.948333 76 28.9000001 75.9833335 28.87 75.95 28.8399998 75.9166665 28.825 75.8766669 28.825 75.83 28.825 75.7899998 28.8383332 75.7516668 28.865 75.715 28.8916668 75.6783332 28.9283331 75.6533334 28.975 75.64 29.1016673 75.6133332 29.2116662 75.5866668 29.305 75.56 29.3983338 75.5333332 29.4833329 75.4900003 29.56 75.43 29.636667 75.3699997 29.708333 75.2866672 29.775 75.18 29.841667 75.0733328 29.9116663 74.9266676 29.985 74.74L32.125 69.53 31.805 68.8C31.7783332 68.7466664 31.7766666 68.6983336 31.8 68.655 31.8233335 68.6116665 31.868333 68.59 31.935 68.59L32.975 68.59 34.575 72.46zM31.285 73.23L33.745 73.23 32.525 70.09 31.285 73.23zM42.045 74.9C42.0650001 75.0266673 42.0983331 75.128333 42.145 75.205 42.1916669 75.2816671 42.2699995 75.3399998 42.38 75.38 42.4900005 75.4200002 42.6349991 75.445 42.815 75.455 42.9950009 75.4650001 43.2283319 75.47 43.515 75.47 43.8016681 75.47 44.0416657 75.431667 44.235 75.355 44.4283343 75.2783329 44.5899993 75.1766673 44.72 75.05 44.8500006 74.9233327 44.9549996 74.7816674 45.035 74.625 45.1150004 74.4683326 45.1849997 74.3133341 45.245 74.16 45.2650001 74.1066664 45.2949998 74.0683335 45.335 74.045 45.3750002 74.0216666 45.4116665 74.01 45.445 74.01 45.4916669 74.01 45.5299998 74.0249998 45.56 74.055 45.5900001 74.0850001 45.5983334 74.1299997 45.585 74.19L45.335 75.79C45.3216666 75.8766671 45.2866669 75.9333332 45.23 75.96 45.173333 75.9866668 45.1083337 76 45.035 76L40.065 76C40.0183331 76 39.9850001 75.9833335 39.965 75.95 39.9449999 75.9166665 39.935 75.8800002 39.935 75.84 39.935 75.7933331 39.9483332 75.7516668 39.975 75.715 40.0016668 75.6783332 40.0416664 75.6533334 40.095 75.64 40.2683342 75.6133332 40.4083328 75.5850001 40.515 75.555 40.6216672 75.5249998 40.7049997 75.4816669 40.765 75.425 40.8250003 75.368333 40.8649999 75.3000004 40.885 75.22 40.9050001 75.1399996 40.9216666 75.0366673 40.935 74.91 40.9416667 74.8499997 40.9466666 74.7750004 40.95 74.685 40.9533333 74.5949996 40.9583333 74.4783341 40.965 74.335 40.9716667 74.191666 40.9766666 74.0166677 40.98 73.81 40.9833334 73.6033323 40.985 73.3533348 40.985 73.06L40.985 71.6C40.985 71.0133304 40.9800001 70.5750015 40.97 70.285 40.9599999 69.9949985 40.9483334 69.7900006 40.935 69.67 40.9216666 69.5433327 40.9066667 69.4400004 40.89 69.36 40.8733332 69.2799996 40.8383336 69.2133336 40.785 69.16 40.7316664 69.1066664 40.6550005 69.0650002 40.555 69.035 40.4549995 69.0049998 40.3183342 68.9766668 40.145 68.95 40.0916664 68.9366666 40.0516668 68.9116668 40.025 68.875 39.9983332 68.8383332 39.985 68.7966669 39.985 68.75 39.985 68.7099998 39.9949999 68.6733335 40.015 68.64 40.0350001 68.6066665 40.0683331 68.59 40.115 68.59L42.805 68.59C42.8516669 68.59 42.8849999 68.6066665 42.905 68.64 42.9250001 68.6733335 42.935 68.7099998 42.935 68.75 42.935 68.7966669 42.9216668 68.8383332 42.895 68.875 42.8683332 68.9116668 42.8283336 68.9366666 42.775 68.95 42.6083325 68.9766668 42.4800004 69.0049998 42.39 69.035 42.2999995 69.0650002 42.2333335 69.1049997 42.19 69.155 42.1466664 69.2050003 42.1166667 69.2716663 42.1 69.355 42.0833333 69.4383337 42.0650001 69.5433327 42.045 69.67 42.0316666 69.7900006 42.0200001 69.9949985 42.01 70.285 42 70.5750015 41.995 71.0066638 41.995 71.58L41.995 73.03C41.995 73.3233348 41.9966667 73.5733323 42 73.78 42.0033333 73.9866677 42.0066666 74.1633326 42.01 74.31 42.0133333 74.4566674 42.0183333 74.5766662 42.025 74.67 42.0316667 74.7633338 42.0383333 74.8399997 42.045 74.9zM51.105 71.87C51.2250006 71.8833334 51.3483327 71.8949999 51.475 71.905 51.6016673 71.9150001 51.7416659 71.92 51.895 71.92 52.1416679 71.92 52.3533324 71.9150001 52.53 71.905 52.7066676 71.8949999 52.8533327 71.8650003 52.97 71.815 53.0866673 71.7649997 53.1799997 71.6850006 53.25 71.575 53.3200003 71.4649994 53.3749998 71.3066677 53.415 71.1 53.4283334 71.0466664 53.4533331 71.0066668 53.49 70.98 53.5266668 70.9533332 53.5683331 70.94 53.615 70.94 53.6550002 70.94 53.6916665 70.9499999 53.725 70.97 53.7583335 70.9900001 53.775 71.0233331 53.775 71.07 53.775 71.2166674 53.7650001 71.3766658 53.745 71.55 53.7249999 71.7233342 53.715 71.9399987 53.715 72.2 53.715 72.4866681 53.7249999 72.6949993 53.745 72.825 53.7650001 72.9550006 53.775 73.0733328 53.775 73.18 53.775 73.2266669 53.7583335 73.2599999 53.725 73.28 53.6916665 73.3000001 53.6550002 73.31 53.615 73.31 53.5683331 73.31 53.5250002 73.2966668 53.485 73.27 53.4449998 73.2433332 53.4216667 73.2033336 53.415 73.15 53.3883332 72.9633324 53.341667 72.8200005 53.275 72.72 53.208333 72.6199995 53.1166672 72.5466669 53 72.5 52.8833328 72.4533331 52.7366675 72.425 52.56 72.415 52.3833325 72.4049999 52.1716679 72.4 51.925 72.4 51.7716659 72.4 51.628334 72.4033333 51.495 72.41 51.361666 72.4166667 51.2316673 72.4266666 51.105 72.44L51.105 73.03C51.105 73.3233348 51.1066666 73.5733323 51.11 73.78 51.1133334 73.9866677 51.1166667 74.1633326 51.12 74.31 51.1233333 74.4566674 51.1283333 74.5766662 51.135 74.67 51.1416667 74.7633338 51.1483333 74.8399997 51.155 74.9 51.1750001 75.0266673 51.2149997 75.128333 51.275 75.205 51.3350003 75.2816671 51.4249994 75.3399998 51.545 75.38 51.6650006 75.4200002 51.8216657 75.445 52.015 75.455 52.2083343 75.4650001 52.4483319 75.47 52.735 75.47 53.0216681 75.47 53.2616657 75.431667 53.455 75.355 53.6483343 75.2783329 53.8099993 75.1766673 53.94 75.05 54.0700006 74.9233327 54.1749996 74.7816674 54.255 74.625 54.3350004 74.4683326 54.4049997 74.3133341 54.465 74.16 54.4850001 74.1066664 54.5149998 74.0683335 54.555 74.045 54.5950002 74.0216666 54.6316665 74.01 54.665 74.01 54.7116669 74.01 54.7499998 74.0249998 54.78 74.055 54.8100002 74.0850001 54.8183334 74.1299997 54.805 74.19L54.565 75.79C54.5516666 75.8766671 54.516667 75.9333332 54.46 75.96 54.4033331 75.9866668 54.3383337 76 54.265 76L49.175 76C49.1283331 76 49.0950001 75.9833335 49.075 75.95 49.0549999 75.9166665 49.045 75.8800002 49.045 75.84 49.045 75.7933331 49.0583332 75.7516668 49.085 75.715 49.1116668 75.6783332 49.1516664 75.6533334 49.205 75.64 49.3783342 75.6133332 49.5183328 75.5850001 49.625 75.555 49.7316672 75.5249998 49.8149997 75.4816669 49.875 75.425 49.9350003 75.368333 49.9749999 75.3000004 49.995 75.22 50.0150001 75.1399996 50.0316666 75.0366673 50.045 74.91 50.0516667 74.8499997 50.0566667 74.7750004 50.06 74.685 50.0633333 74.5949996 50.0683333 74.4783341 50.075 74.335 50.0816667 74.191666 50.0866666 74.0166677 50.09 73.81 50.0933333 73.6033323 50.095 73.3533348 50.095 73.06L50.095 71.6C50.095 71.0133304 50.0900001 70.5750015 50.08 70.285 50.07 69.9949985 50.0583334 69.7900006 50.045 69.67 50.0316666 69.5433327 50.0166668 69.4400004 50 69.36 49.9833332 69.2799996 49.9483336 69.2133336 49.895 69.16 49.8416664 69.1066664 49.7650005 69.0650002 49.665 69.035 49.5649995 69.0049998 49.4283342 68.9766668 49.255 68.95 49.2016664 68.9366666 49.1616668 68.9116668 49.135 68.875 49.1083332 68.8383332 49.095 68.7966669 49.095 68.75 49.095 68.7099998 49.1049999 68.6733335 49.125 68.64 49.1450001 68.6066665 49.1783331 68.59 49.225 68.59L54.065 68.59C54.1850006 68.59 54.2649998 68.6166664 54.305 68.67 54.3450002 68.7233336 54.365 68.8099994 54.365 68.93L54.365 70.34C54.365 70.3933336 54.3466669 70.4349998 54.31 70.465 54.2733331 70.4950002 54.2316669 70.51 54.185 70.51 54.1383331 70.51 54.0950002 70.4950002 54.055 70.465 54.0149998 70.4349998 53.9916667 70.386667 53.985 70.32 53.9449998 69.919998 53.8333343 69.6166677 53.65 69.41 53.4666658 69.2033323 53.2150016 69.1 52.895 69.1L51.615 69.1C51.5416663 69.1 51.4500005 69.105 51.34 69.115 51.2299994 69.1250001 51.1516669 69.1399999 51.105 69.16L51.105 71.87zM63.355 72.97C63.2549995 72.97 63.1800002 72.9383337 63.13 72.875 63.0799998 72.8116663 63.055 72.7433337 63.055 72.67 63.055 72.5899996 63.0816664 72.516667 63.135 72.45 63.1883336 72.383333 63.2616662 72.35 63.355 72.35L66.715 72.35C66.8283339 72.35 66.9133331 72.3816663 66.97 72.445 67.0266669 72.5083336 67.055 72.5766663 67.055 72.65 67.055 72.7300004 67.0266669 72.803333 66.97 72.87 66.9133331 72.936667 66.8316672 72.97 66.725 72.97L63.355 72.97zM76.115 70.15L76.165 73C76.1716667 73.2933348 76.1766667 73.5416657 76.18 73.745 76.1833333 73.9483343 76.1866667 74.121666 76.19 74.265 76.1933333 74.4083341 76.1966666 74.5249996 76.2 74.615 76.2033333 74.7050005 76.2083333 74.7799997 76.215 74.84 76.2350001 74.9666673 76.2616665 75.0749996 76.295 75.165 76.3283335 75.2550005 76.378333 75.3316663 76.445 75.395 76.511667 75.4583336 76.5983328 75.5083331 76.705 75.545 76.8116672 75.5816668 76.9483325 75.6133332 77.115 75.64 77.1683336 75.6533334 77.2083332 75.6783332 77.235 75.715 77.2616668 75.7516668 77.275 75.7933331 77.275 75.84 77.275 75.8800002 77.2650001 75.9166665 77.245 75.95 77.2249999 75.9833335 77.1916669 76 77.145 76L74.595 76C74.5483331 76 74.5150001 75.9833335 74.495 75.95 74.4749999 75.9166665 74.465 75.8800002 74.465 75.84 74.465 75.7933331 74.4783332 75.7516668 74.505 75.715 74.5316668 75.6783332 74.5716664 75.6533334 74.625 75.64 74.7983342 75.6133332 74.9383328 75.5850001 75.045 75.555 75.1516672 75.5249998 75.2349997 75.4816669 75.295 75.425 75.3550003 75.368333 75.3949999 75.3000004 75.415 75.22 75.4350001 75.1399996 75.4516666 75.0366673 75.465 74.91 75.4716667 74.8499997 75.4766666 74.7750004 75.48 74.685 75.4833334 74.5949996 75.4883333 74.4783341 75.495 74.335 75.5016667 74.191666 75.5066666 74.0166677 75.51 73.81 75.5133333 73.6033323 75.515 73.3533348 75.515 73.06L75.515 71.6C75.515 71.0133304 75.51 70.5633349 75.5 70.25 75.4899999 69.9366651 75.4783334 69.7200006 75.465 69.6L74.795 68.88C74.7349997 68.813333 74.705 68.7533336 74.705 68.7 74.705 68.6266663 74.7516662 68.59 74.845 68.59L76.225 68.59 80.775 74.05 80.775 71.6C80.775 71.0133304 80.7666668 70.5766681 80.75 70.29 80.7333332 70.0033319 80.7216667 69.8000006 80.715 69.68 80.7016666 69.5533327 80.6866667 69.4500004 80.67 69.37 80.6533333 69.2899996 80.6183336 69.2233336 80.565 69.17 80.5116664 69.1166664 80.4350005 69.0750001 80.335 69.045 80.2349995 69.0149999 80.0983342 68.9866668 79.925 68.96 79.8716664 68.9466666 79.8316668 68.9200002 79.805 68.88 79.7783332 68.8399998 79.765 68.7966669 79.765 68.75 79.765 68.7099998 79.7749999 68.6733335 79.795 68.64 79.8150001 68.6066665 79.8483331 68.59 79.895 68.59L82.295 68.59C82.3416669 68.59 82.3749999 68.6066665 82.395 68.64 82.4150001 68.6733335 82.425 68.7099998 82.425 68.75 82.425 68.7966669 82.4116668 68.8399998 82.385 68.88 82.3583332 68.9200002 82.3183336 68.9466666 82.265 68.96 82.0983325 68.9866668 81.9700004 69.0149999 81.88 69.045 81.7899996 69.0750001 81.7233336 69.1149998 81.68 69.165 81.6366665 69.2150003 81.6066667 69.2816663 81.59 69.365 81.5733333 69.4483337 81.5550001 69.5533327 81.535 69.68 81.5216666 69.8000006 81.5066668 70.0033319 81.49 70.29 81.4733332 70.5766681 81.465 71.0066638 81.465 71.58L81.465 75.92C81.465 76.0066671 81.4483335 76.0683332 81.415 76.105 81.3816665 76.1416668 81.3383336 76.16 81.285 76.16 81.1983329 76.16 81.1250003 76.1233337 81.065 76.05L76.115 70.15zM88.155 71.87C88.2750006 71.8833334 88.3983327 71.8949999 88.525 71.905 88.6516673 71.9150001 88.7916659 71.92 88.945 71.92 89.1916679 71.92 89.4033324 71.9150001 89.58 71.905 89.7566675 71.8949999 89.9033328 71.8650003 90.02 71.815 90.1366672 71.7649997 90.2299996 71.6850006 90.3 71.575 90.3700003 71.4649994 90.4249998 71.3066677 90.465 71.1 90.4783334 71.0466664 90.5033332 71.0066668 90.54 70.98 90.5766668 70.9533332 90.6183331 70.94 90.665 70.94 90.7050002 70.94 90.7416665 70.9499999 90.775 70.97 90.8083335 70.9900001 90.825 71.0233331 90.825 71.07 90.825 71.2166674 90.8150001 71.3766658 90.795 71.55 90.7749999 71.7233342 90.765 71.9399987 90.765 72.2 90.765 72.4866681 90.7749999 72.6949993 90.795 72.825 90.8150001 72.9550006 90.825 73.0733328 90.825 73.18 90.825 73.2266669 90.8083335 73.2599999 90.775 73.28 90.7416665 73.3000001 90.7050002 73.31 90.665 73.31 90.6183331 73.31 90.5750002 73.2966668 90.535 73.27 90.4949998 73.2433332 90.4716667 73.2033336 90.465 73.15 90.4383332 72.9633324 90.391667 72.8200005 90.325 72.72 90.258333 72.6199995 90.1666672 72.5466669 90.05 72.5 89.9333327 72.4533331 89.7866676 72.425 89.61 72.415 89.4333324 72.4049999 89.2216679 72.4 88.975 72.4 88.8216659 72.4 88.678334 72.4033333 88.545 72.41 88.411666 72.4166667 88.2816673 72.4266666 88.155 72.44L88.155 73.03C88.155 73.3233348 88.1566667 73.5733323 88.16 73.78 88.1633334 73.9866677 88.1666667 74.1633326 88.17 74.31 88.1733334 74.4566674 88.1783333 74.5766662 88.185 74.67 88.1916667 74.7633338 88.1983333 74.8399997 88.205 74.9 88.2250001 75.0266673 88.2649997 75.128333 88.325 75.205 88.3850003 75.2816671 88.4749994 75.3399998 88.595 75.38 88.7150006 75.4200002 88.8716657 75.445 89.065 75.455 89.2583343 75.4650001 89.4983319 75.47 89.785 75.47 90.0716681 75.47 90.3116657 75.431667 90.505 75.355 90.6983343 75.2783329 90.8599994 75.1766673 90.99 75.05 91.1200007 74.9233327 91.2249996 74.7816674 91.305 74.625 91.3850004 74.4683326 91.4549997 74.3133341 91.515 74.16 91.5350001 74.1066664 91.5649998 74.0683335 91.605 74.045 91.6450002 74.0216666 91.6816665 74.01 91.715 74.01 91.7616669 74.01 91.7999999 74.0249998 91.83 74.055 91.8600002 74.0850001 91.8683334 74.1299997 91.855 74.19L91.615 75.79C91.6016666 75.8766671 91.566667 75.9333332 91.51 75.96 91.453333 75.9866668 91.3883337 76 91.315 76L86.225 76C86.1783331 76 86.1450001 75.9833335 86.125 75.95 86.1049999 75.9166665 86.095 75.8800002 86.095 75.84 86.095 75.7933331 86.1083332 75.7516668 86.135 75.715 86.1616668 75.6783332 86.2016664 75.6533334 86.255 75.64 86.4283342 75.6133332 86.5683328 75.5850001 86.675 75.555 86.7816672 75.5249998 86.8649997 75.4816669 86.925 75.425 86.9850003 75.368333 87.0249999 75.3000004 87.045 75.22 87.0650001 75.1399996 87.0816666 75.0366673 87.095 74.91 87.1016667 74.8499997 87.1066666 74.7750004 87.11 74.685 87.1133334 74.5949996 87.1183333 74.4783341 87.125 74.335 87.1316667 74.191666 87.1366666 74.0166677 87.14 73.81 87.1433334 73.6033323 87.145 73.3533348 87.145 73.06L87.145 71.6C87.145 71.0133304 87.1400001 70.5750015 87.13 70.285 87.1199999 69.9949985 87.1083334 69.7900006 87.095 69.67 87.0816666 69.5433327 87.0666667 69.4400004 87.05 69.36 87.0333332 69.2799996 86.9983336 69.2133336 86.945 69.16 86.8916664 69.1066664 86.8150005 69.0650002 86.715 69.035 86.6149995 69.0049998 86.4783342 68.9766668 86.305 68.95 86.2516664 68.9366666 86.2116668 68.9116668 86.185 68.875 86.1583332 68.8383332 86.145 68.7966669 86.145 68.75 86.145 68.7099998 86.1549999 68.6733335 86.175 68.64 86.1950001 68.6066665 86.2283331 68.59 86.275 68.59L91.115 68.59C91.2350006 68.59 91.3149998 68.6166664 91.355 68.67 91.3950002 68.7233336 91.415 68.8099994 91.415 68.93L91.415 70.34C91.415 70.3933336 91.3966668 70.4349998 91.36 70.465 91.3233331 70.4950002 91.2816669 70.51 91.235 70.51 91.1883331 70.51 91.1450002 70.4950002 91.105 70.465 91.0649998 70.4349998 91.0416667 70.386667 91.035 70.32 90.9949998 69.919998 90.8833342 69.6166677 90.7 69.41 90.5166658 69.2033323 90.2650016 69.1 89.945 69.1L88.665 69.1C88.5916663 69.1 88.5000005 69.105 88.39 69.115 88.2799994 69.1250001 88.2016669 69.1399999 88.155 69.16L88.155 71.87zM100.435 71.17L98.745 75.8C98.6716663 76.0066677 98.5783339 76.11 98.465 76.11 98.3649995 76.11 98.2850003 76.0266675 98.225 75.86L96.815 72.13C96.6216657 71.6233308 96.4533341 71.1933351 96.31 70.84 96.1666659 70.4866649 96.0416672 70.1950011 95.935 69.965 95.8283328 69.7349989 95.7350004 69.5550007 95.655 69.425 95.5749996 69.2949994 95.5033337 69.196667 95.44 69.13 95.3766663 69.063333 95.3150003 69.0200001 95.255 69 95.1949997 68.9799999 95.131667 68.9633334 95.065 68.95 95.0116664 68.9366666 94.9716668 68.9100002 94.945 68.87 94.9183332 68.8299998 94.905 68.7866669 94.905 68.74 94.905 68.6999998 94.9149999 68.6650001 94.935 68.635 94.9550001 68.6049999 94.9883331 68.59 95.035 68.59L97.685 68.59C97.7316669 68.59 97.7649999 68.6066665 97.785 68.64 97.8050001 68.6733335 97.815 68.7099998 97.815 68.75 97.815 68.7966669 97.8016668 68.8399998 97.775 68.88 97.7483332 68.9200002 97.7083336 68.9433333 97.655 68.95 97.3949987 68.9700001 97.2116672 69.0099997 97.105 69.07 96.9983328 69.1300003 96.945 69.2233327 96.945 69.35 96.945 69.4300004 96.9633332 69.5266661 97 69.64 97.0366669 69.7533339 97.0816664 69.8866659 97.135 70.04L98.715 74.4 100.125 70.34C100.024999 70.0599986 99.9316671 69.8316675 99.845 69.655 99.7583329 69.4783325 99.6750004 69.3400005 99.595 69.24 99.5149996 69.1399995 99.436667 69.0700002 99.36 69.03 99.2833329 68.9899998 99.2083337 68.9633334 99.135 68.95 99.0816664 68.9366666 99.0416668 68.9100002 99.015 68.87 98.9883332 68.8299998 98.975 68.7866669 98.975 68.74 98.975 68.6999998 98.9849999 68.6650001 99.005 68.635 99.0250001 68.6049999 99.0583331 68.59 99.105 68.59L101.615 68.59C101.661667 68.59 101.695 68.6066665 101.715 68.64 101.735 68.6733335 101.745 68.7099998 101.745 68.75 101.745 68.7966669 101.731667 68.8399998 101.705 68.88 101.678333 68.9200002 101.638334 68.9433333 101.585 68.95 101.324999 68.9700001 101.143334 69.0066664 101.04 69.06 100.936666 69.1133336 100.885 69.1999994 100.885 69.32 100.885 69.4000004 100.901667 69.4949994 100.935 69.605 100.968333 69.7150006 101.011666 69.8466659 101.065 70L102.575 74.4 104.165 69.52C104.178333 69.4866665 104.188333 69.4550001 104.195 69.425 104.201667 69.3949999 104.205 69.3666668 104.205 69.34 104.205 69.2199994 104.141667 69.1333336 104.015 69.08 103.888333 69.0266664 103.698335 68.9833335 103.445 68.95 103.405 68.9433333 103.371667 68.9200002 103.345 68.88 103.318333 68.8399998 103.305 68.7966669 103.305 68.75 103.305 68.7099998 103.318333 68.6733335 103.345 68.64 103.371667 68.6066665 103.415 68.59 103.475 68.59L105.725 68.59C105.791667 68.59 105.84 68.6066665 105.87 68.64 105.9 68.6733335 105.915 68.7133331 105.915 68.76 105.915 68.8000002 105.901667 68.8383332 105.875 68.875 105.848333 68.9116668 105.811667 68.9366666 105.765 68.95 105.631666 68.9766668 105.518334 69.0049998 105.425 69.035 105.331666 69.0650002 105.25 69.1099997 105.18 69.17 105.11 69.2300003 105.045 69.3099995 104.985 69.41 104.925 69.5100005 104.865 69.6399992 104.805 69.8L102.605 75.8C102.531666 76.0066677 102.438334 76.11 102.325 76.11 102.224999 76.11 102.145 76.0266675 102.085 75.86L100.435 71.17zM118.415 69.02C117.994998 69.02 117.623335 69.1066658 117.3 69.28 116.976665 69.4533342 116.708334 69.6866652 116.495 69.98 116.281666 70.2733348 116.120001 70.6133314 116.01 71 115.899999 71.3866686 115.845 71.7933312 115.845 72.22 115.845 72.6733356 115.899999 73.1016646 116.01 73.505 116.120001 73.9083354 116.284999 74.2616651 116.505 74.565 116.725001 74.8683348 116.996665 75.1083324 117.32 75.285 117.643335 75.4616676 118.014998 75.55 118.435 75.55 118.855002 75.55 119.228332 75.4683341 119.555 75.305 119.881668 75.1416658 120.156666 74.9166681 120.38 74.63 120.603334 74.3433319 120.773333 74.0066686 120.89 73.62 121.006667 73.2333314 121.065 72.8200022 121.065 72.38 121.065 71.913331 121.006667 71.4750021 120.89 71.065 120.773333 70.6549979 120.601668 70.2983349 120.375 69.995 120.148332 69.6916652 119.871668 69.4533342 119.545 69.28 119.218332 69.1066658 118.841669 69.02 118.415 69.02zM114.665 72.3C114.665 71.7533306 114.759999 71.2450023 114.95 70.775 115.140001 70.3049976 115.403332 69.8966684 115.74 69.55 116.076668 69.2033316 116.476664 68.9316677 116.94 68.735 117.403336 68.5383323 117.908331 68.44 118.455 68.44 119.001669 68.44 119.506664 68.5383323 119.97 68.735 120.433336 68.9316677 120.833332 69.2033316 121.17 69.55 121.506668 69.8966684 121.769999 70.3049976 121.96 70.775 122.150001 71.2450023 122.245 71.7533306 122.245 72.3 122.245 72.8466694 122.150001 73.3549976 121.96 73.825 121.769999 74.2950024 121.506668 74.701665 121.17 75.045 120.833332 75.3883351 120.433336 75.6583324 119.97 75.855 119.506664 76.0516677 119.001669 76.15 118.455 76.15 117.908331 76.15 117.403336 76.0516677 116.94 75.855 116.476664 75.6583324 116.076668 75.3883351 115.74 75.045 115.403332 74.701665 115.140001 74.2950024 114.95 73.825 114.759999 73.3549976 114.665 72.8466694 114.665 72.3zM128.305 71.87C128.425001 71.8833334 128.541666 71.8949999 128.655 71.905 128.768334 71.9150001 128.891666 71.92 129.025 71.92 129.271668 71.92 129.481666 71.9150001 129.655 71.905 129.828334 71.8949999 129.971666 71.8633336 130.085 71.81 130.198334 71.7566664 130.288333 71.6750005 130.355 71.565 130.421667 71.4549995 130.475 71.300001 130.515 71.1 130.528333 71.0466664 130.553333 71.0066668 130.59 70.98 130.626667 70.9533332 130.668333 70.94 130.715 70.94 130.755 70.94 130.791667 70.9499999 130.825 70.97 130.858334 70.9900001 130.875 71.0233331 130.875 71.07 130.875 71.2166674 130.865 71.3766658 130.845 71.55 130.825 71.7233342 130.815 71.9399987 130.815 72.2 130.815 72.4866681 130.825 72.6949993 130.845 72.825 130.865 72.9550006 130.875 73.0733328 130.875 73.18 130.875 73.2266669 130.858334 73.2599999 130.825 73.28 130.791667 73.3000001 130.755 73.31 130.715 73.31 130.668333 73.31 130.626667 73.2966668 130.59 73.27 130.553333 73.2433332 130.528333 73.2033336 130.515 73.15 130.488333 72.9699991 130.441667 72.8283339 130.375 72.725 130.308333 72.6216662 130.216667 72.5466669 130.1 72.5 129.983333 72.4533331 129.840001 72.425 129.67 72.415 129.499999 72.4049999 129.295001 72.4 129.055 72.4 128.914999 72.4 128.788334 72.4016667 128.675 72.405 128.561666 72.4083333 128.438334 72.4199999 128.305 72.44L128.305 73.07C128.305 73.3633348 128.306667 73.6116657 128.31 73.815 128.313333 74.0183343 128.316667 74.191666 128.32 74.335 128.323333 74.4783341 128.328333 74.5949996 128.335 74.685 128.341667 74.7750004 128.348333 74.8499997 128.355 74.91 128.388334 75.1633346 128.501666 75.3366662 128.695 75.43 128.888334 75.5233338 129.191665 75.5933331 129.605 75.64 129.658334 75.6466667 129.698333 75.6699998 129.725 75.71 129.751667 75.7500002 129.765 75.7933331 129.765 75.84 129.765 75.8800002 129.755 75.9166665 129.735 75.95 129.715 75.9833335 129.681667 76 129.635 76L126.375 76C126.328333 76 126.295 75.9833335 126.275 75.95 126.255 75.9166665 126.245 75.8800002 126.245 75.84 126.245 75.7933331 126.258333 75.7516668 126.285 75.715 126.311667 75.6783332 126.351666 75.6533334 126.405 75.64 126.578334 75.6133332 126.718333 75.5850001 126.825 75.555 126.931667 75.5249998 127.015 75.4816669 127.075 75.425 127.135 75.368333 127.175 75.3000004 127.195 75.22 127.215 75.1399996 127.231667 75.0366673 127.245 74.91 127.251667 74.8499997 127.256667 74.7750004 127.26 74.685 127.263333 74.5949996 127.268333 74.4783341 127.275 74.335 127.281667 74.191666 127.286667 74.0166677 127.29 73.81 127.293333 73.6033323 127.295 73.3533348 127.295 73.06L127.295 71.6C127.295 71.0133304 127.29 70.5750015 127.28 70.285 127.27 69.9949985 127.258333 69.7900006 127.245 69.67 127.231667 69.5433327 127.216667 69.4400004 127.2 69.36 127.183333 69.2799996 127.148334 69.2133336 127.095 69.16 127.041666 69.1066664 126.965 69.0650002 126.865 69.035 126.765 69.0049998 126.628334 68.9766668 126.455 68.95 126.401666 68.9366666 126.361667 68.9116668 126.335 68.875 126.308333 68.8383332 126.295 68.7966669 126.295 68.75 126.295 68.7099998 126.305 68.6733335 126.325 68.64 126.345 68.6066665 126.378333 68.59 126.425 68.59L131.195 68.59C131.308334 68.59 131.398333 68.6116665 131.465 68.655 131.531667 68.6983336 131.565 68.7733328 131.565 68.88L131.565 70.34C131.565 70.3933336 131.546667 70.4349998 131.51 70.465 131.473333 70.4950002 131.431667 70.51 131.385 70.51 131.338333 70.51 131.295 70.4950002 131.255 70.465 131.215 70.4349998 131.191667 70.386667 131.185 70.32 131.145 69.919998 131.033334 69.6166677 130.85 69.41 130.666666 69.2033323 130.415002 69.1 130.095 69.1L128.815 69.1C128.741666 69.1 128.650001 69.105 128.54 69.115 128.429999 69.1250001 128.351667 69.1399999 128.305 69.16L128.305 71.87zM137.255 71.87C137.375001 71.8833334 137.491666 71.8949999 137.605 71.905 137.718334 71.9150001 137.841666 71.92 137.975 71.92 138.221668 71.92 138.431666 71.9150001 138.605 71.905 138.778334 71.8949999 138.921666 71.8633336 139.035 71.81 139.148334 71.7566664 139.238333 71.6750005 139.305 71.565 139.371667 71.4549995 139.425 71.300001 139.465 71.1 139.478333 71.0466664 139.503333 71.0066668 139.54 70.98 139.576667 70.9533332 139.618333 70.94 139.665 70.94 139.705 70.94 139.741667 70.9499999 139.775 70.97 139.808334 70.9900001 139.825 71.0233331 139.825 71.07 139.825 71.2166674 139.815 71.3766658 139.795 71.55 139.775 71.7233342 139.765 71.9399987 139.765 72.2 139.765 72.4866681 139.775 72.6949993 139.795 72.825 139.815 72.9550006 139.825 73.0733328 139.825 73.18 139.825 73.2266669 139.808334 73.2599999 139.775 73.28 139.741667 73.3000001 139.705 73.31 139.665 73.31 139.618333 73.31 139.576667 73.2966668 139.54 73.27 139.503333 73.2433332 139.478333 73.2033336 139.465 73.15 139.438333 72.9699991 139.391667 72.8283339 139.325 72.725 139.258333 72.6216662 139.166667 72.5466669 139.05 72.5 138.933333 72.4533331 138.790001 72.425 138.62 72.415 138.449999 72.4049999 138.245001 72.4 138.005 72.4 137.864999 72.4 137.738334 72.4016667 137.625 72.405 137.511666 72.4083333 137.388334 72.4199999 137.255 72.44L137.255 73.07C137.255 73.3633348 137.256667 73.6116657 137.26 73.815 137.263333 74.0183343 137.266667 74.191666 137.27 74.335 137.273333 74.4783341 137.278333 74.5949996 137.285 74.685 137.291667 74.7750004 137.298333 74.8499997 137.305 74.91 137.338334 75.1633346 137.451666 75.3366662 137.645 75.43 137.838334 75.5233338 138.141665 75.5933331 138.555 75.64 138.608334 75.6466667 138.648333 75.6699998 138.675 75.71 138.701667 75.7500002 138.715 75.7933331 138.715 75.84 138.715 75.8800002 138.705 75.9166665 138.685 75.95 138.665 75.9833335 138.631667 76 138.585 76L135.325 76C135.278333 76 135.245 75.9833335 135.225 75.95 135.205 75.9166665 135.195 75.8800002 135.195 75.84 135.195 75.7933331 135.208333 75.7516668 135.235 75.715 135.261667 75.6783332 135.301666 75.6533334 135.355 75.64 135.528334 75.6133332 135.668333 75.5850001 135.775 75.555 135.881667 75.5249998 135.965 75.4816669 136.025 75.425 136.085 75.368333 136.125 75.3000004 136.145 75.22 136.165 75.1399996 136.181667 75.0366673 136.195 74.91 136.201667 74.8499997 136.206667 74.7750004 136.21 74.685 136.213333 74.5949996 136.218333 74.4783341 136.225 74.335 136.231667 74.191666 136.236667 74.0166677 136.24 73.81 136.243333 73.6033323 136.245 73.3533348 136.245 73.06L136.245 71.6C136.245 71.0133304 136.24 70.5750015 136.23 70.285 136.22 69.9949985 136.208333 69.7900006 136.195 69.67 136.181667 69.5433327 136.166667 69.4400004 136.15 69.36 136.133333 69.2799996 136.098334 69.2133336 136.045 69.16 135.991666 69.1066664 135.915001 69.0650002 135.815 69.035 135.715 69.0049998 135.578334 68.9766668 135.405 68.95 135.351666 68.9366666 135.311667 68.9116668 135.285 68.875 135.258333 68.8383332 135.245 68.7966669 135.245 68.75 135.245 68.7099998 135.255 68.6733335 135.275 68.64 135.295 68.6066665 135.328333 68.59 135.375 68.59L140.145 68.59C140.258334 68.59 140.348333 68.6116665 140.415 68.655 140.481667 68.6983336 140.515 68.7733328 140.515 68.88L140.515 70.34C140.515 70.3933336 140.496667 70.4349998 140.46 70.465 140.423333 70.4950002 140.381667 70.51 140.335 70.51 140.288333 70.51 140.245 70.4950002 140.205 70.465 140.165 70.4349998 140.141667 70.386667 140.135 70.32 140.095 69.919998 139.983334 69.6166677 139.8 69.41 139.616666 69.2033323 139.365002 69.1 139.045 69.1L137.765 69.1C137.691666 69.1 137.600001 69.105 137.49 69.115 137.379999 69.1250001 137.301667 69.1399999 137.255 69.16L137.255 71.87zM146.205 71.87C146.325001 71.8833334 146.448333 71.8949999 146.575 71.905 146.701667 71.9150001 146.841666 71.92 146.995 71.92 147.241668 71.92 147.453332 71.9150001 147.63 71.905 147.806668 71.8949999 147.953333 71.8650003 148.07 71.815 148.186667 71.7649997 148.28 71.6850006 148.35 71.575 148.42 71.4649994 148.475 71.3066677 148.515 71.1 148.528333 71.0466664 148.553333 71.0066668 148.59 70.98 148.626667 70.9533332 148.668333 70.94 148.715 70.94 148.755 70.94 148.791667 70.9499999 148.825 70.97 148.858334 70.9900001 148.875 71.0233331 148.875 71.07 148.875 71.2166674 148.865 71.3766658 148.845 71.55 148.825 71.7233342 148.815 71.9399987 148.815 72.2 148.815 72.4866681 148.825 72.6949993 148.845 72.825 148.865 72.9550006 148.875 73.0733328 148.875 73.18 148.875 73.2266669 148.858334 73.2599999 148.825 73.28 148.791667 73.3000001 148.755 73.31 148.715 73.31 148.668333 73.31 148.625 73.2966668 148.585 73.27 148.545 73.2433332 148.521667 73.2033336 148.515 73.15 148.488333 72.9633324 148.441667 72.8200005 148.375 72.72 148.308333 72.6199995 148.216667 72.5466669 148.1 72.5 147.983333 72.4533331 147.836668 72.425 147.66 72.415 147.483332 72.4049999 147.271668 72.4 147.025 72.4 146.871666 72.4 146.728334 72.4033333 146.595 72.41 146.461666 72.4166667 146.331667 72.4266666 146.205 72.44L146.205 73.03C146.205 73.3233348 146.206667 73.5733323 146.21 73.78 146.213333 73.9866677 146.216667 74.1633326 146.22 74.31 146.223333 74.4566674 146.228333 74.5766662 146.235 74.67 146.241667 74.7633338 146.248333 74.8399997 146.255 74.9 146.275 75.0266673 146.315 75.128333 146.375 75.205 146.435 75.2816671 146.524999 75.3399998 146.645 75.38 146.765001 75.4200002 146.921666 75.445 147.115 75.455 147.308334 75.4650001 147.548332 75.47 147.835 75.47 148.121668 75.47 148.361666 75.431667 148.555 75.355 148.748334 75.2783329 148.909999 75.1766673 149.04 75.05 149.170001 74.9233327 149.275 74.7816674 149.355 74.625 149.435 74.4683326 149.505 74.3133341 149.565 74.16 149.585 74.1066664 149.615 74.0683335 149.655 74.045 149.695 74.0216666 149.731667 74.01 149.765 74.01 149.811667 74.01 149.85 74.0249998 149.88 74.055 149.91 74.0850001 149.918333 74.1299997 149.905 74.19L149.665 75.79C149.651667 75.8766671 149.616667 75.9333332 149.56 75.96 149.503333 75.9866668 149.438334 76 149.365 76L144.275 76C144.228333 76 144.195 75.9833335 144.175 75.95 144.155 75.9166665 144.145 75.8800002 144.145 75.84 144.145 75.7933331 144.158333 75.7516668 144.185 75.715 144.211667 75.6783332 144.251666 75.6533334 144.305 75.64 144.478334 75.6133332 144.618333 75.5850001 144.725 75.555 144.831667 75.5249998 144.915 75.4816669 144.975 75.425 145.035 75.368333 145.075 75.3000004 145.095 75.22 145.115 75.1399996 145.131667 75.0366673 145.145 74.91 145.151667 74.8499997 145.156667 74.7750004 145.16 74.685 145.163333 74.5949996 145.168333 74.4783341 145.175 74.335 145.181667 74.191666 145.186667 74.0166677 145.19 73.81 145.193333 73.6033323 145.195 73.3533348 145.195 73.06L145.195 71.6C145.195 71.0133304 145.19 70.5750015 145.18 70.285 145.17 69.9949985 145.158333 69.7900006 145.145 69.67 145.131667 69.5433327 145.116667 69.4400004 145.1 69.36 145.083333 69.2799996 145.048334 69.2133336 144.995 69.16 144.941666 69.1066664 144.865001 69.0650002 144.765 69.035 144.665 69.0049998 144.528334 68.9766668 144.355 68.95 144.301666 68.9366666 144.261667 68.9116668 144.235 68.875 144.208333 68.8383332 144.195 68.7966669 144.195 68.75 144.195 68.7099998 144.205 68.6733335 144.225 68.64 144.245 68.6066665 144.278333 68.59 144.325 68.59L149.165 68.59C149.285001 68.59 149.365 68.6166664 149.405 68.67 149.445 68.7233336 149.465 68.8099994 149.465 68.93L149.465 70.34C149.465 70.3933336 149.446667 70.4349998 149.41 70.465 149.373333 70.4950002 149.331667 70.51 149.285 70.51 149.238333 70.51 149.195 70.4950002 149.155 70.465 149.115 70.4349998 149.091667 70.386667 149.085 70.32 149.045 69.919998 148.933334 69.6166677 148.75 69.41 148.566666 69.2033323 148.315002 69.1 147.995 69.1L146.715 69.1C146.641666 69.1 146.550001 69.105 146.44 69.115 146.329999 69.1250001 146.251667 69.1399999 146.205 69.16L146.205 71.87zM156.285 72.82C156.231666 72.7466663 156.19 72.6800003 156.16 72.62 156.13 72.5599997 156.115 72.5133335 156.115 72.48 156.115 72.3999996 156.178333 72.36 156.305 72.36 156.525001 72.36 156.741666 72.3283336 156.955 72.265 157.168334 72.2016664 157.359999 72.1016674 157.53 71.965 157.700001 71.8283326 157.836666 71.6516678 157.94 71.435 158.043334 71.2183323 158.095 70.9600015 158.095 70.66 158.095 70.1399974 157.925002 69.7450013 157.585 69.475 157.244998 69.2049986 156.775003 69.07 156.175 69.07 156.101666 69.07 156.010001 69.075 155.9 69.085 155.789999 69.0950001 155.711667 69.1099999 155.665 69.13L155.665 72.92C155.665 73.3266687 155.666667 73.6516654 155.67 73.895 155.673333 74.1383346 155.678333 74.3333326 155.685 74.48 155.691667 74.6266674 155.698333 74.7399996 155.705 74.82 155.711667 74.9000004 155.721667 74.9799996 155.735 75.06 155.748333 75.1533338 155.766667 75.2299997 155.79 75.29 155.813333 75.3500003 155.855 75.4016664 155.915 75.445 155.975 75.4883335 156.055 75.5249998 156.155 75.555 156.255001 75.5850001 156.388333 75.6133332 156.555 75.64 156.608334 75.6533334 156.648333 75.6783332 156.675 75.715 156.701667 75.7516668 156.715 75.7933331 156.715 75.84 156.715 75.8800002 156.705 75.9166665 156.685 75.95 156.665 75.9833335 156.631667 76 156.585 76L153.735 76C153.688333 76 153.655 75.9833335 153.635 75.95 153.615 75.9166665 153.605 75.8800002 153.605 75.84 153.605 75.7933331 153.618333 75.7516668 153.645 75.715 153.671667 75.6783332 153.711666 75.6533334 153.765 75.64 153.938334 75.6133332 154.078333 75.5850001 154.185 75.555 154.291667 75.5249998 154.375 75.4816669 154.435 75.425 154.495 75.368333 154.535 75.3000004 154.555 75.22 154.575 75.1399996 154.591667 75.0366673 154.605 74.91 154.611667 74.8499997 154.616667 74.7733338 154.62 74.68 154.623333 74.5866662 154.628333 74.4666674 154.635 74.32 154.641667 74.1733326 154.646667 73.995001 154.65 73.785 154.653333 73.574999 154.655 73.3233348 154.655 73.03L154.655 71.6C154.655 71.0133304 154.65 70.5750015 154.64 70.285 154.63 69.9949985 154.618333 69.7900006 154.605 69.67 154.591667 69.5433327 154.576667 69.4400004 154.56 69.36 154.543333 69.2799996 154.508334 69.2133336 154.455 69.16 154.401666 69.1066664 154.325 69.0650002 154.225 69.035 154.125 69.0049998 153.988334 68.9766668 153.815 68.95 153.761666 68.9366666 153.721667 68.9116668 153.695 68.875 153.668333 68.8383332 153.655 68.7966669 153.655 68.75 153.655 68.7099998 153.665 68.6733335 153.685 68.64 153.705 68.6066665 153.738333 68.59 153.785 68.59L156.475 68.59C156.815002 68.59 157.148332 68.6266663 157.475 68.7 157.801668 68.7733337 158.091665 68.8899992 158.345 69.05 158.598335 69.2100008 158.801666 69.4166654 158.955 69.67 159.108334 69.9233346 159.185 70.2299982 159.185 70.59 159.185 70.8900015 159.128334 71.1566655 159.015 71.39 158.901666 71.6233345 158.755001 71.8233325 158.575 71.99 158.394999 72.1566675 158.191668 72.2899995 157.965 72.39 157.738332 72.4900005 157.515001 72.5599998 157.295 72.6L158.925 74.86C159.038334 75.0133341 159.141666 75.1449995 159.235 75.255 159.328334 75.3650005 159.421666 75.4616663 159.515 75.545 159.608334 75.6283338 159.706666 75.703333 159.81 75.77 159.913334 75.836667 160.031666 75.903333 160.165 75.97 160.218334 75.9900001 160.245 76.0266664 160.245 76.08 160.245 76.1333336 160.193334 76.1699999 160.09 76.19 159.986666 76.2100001 159.845001 76.22 159.665 76.22 159.284998 76.22 158.978335 76.1833337 158.745 76.11 158.511666 76.0366663 158.335001 75.9100009 158.215 75.73L156.285 72.82zM163.755 74C163.841667 74.333335 163.946666 74.6049989 164.07 74.815 164.193334 75.0250011 164.328333 75.1883327 164.475 75.305 164.621667 75.4216672 164.774999 75.5016665 164.935 75.545 165.095001 75.5883336 165.258333 75.61 165.425 75.61 165.578334 75.61 165.743332 75.5883336 165.92 75.545 166.096668 75.5016665 166.258333 75.4300005 166.405 75.33 166.551667 75.2299995 166.673333 75.0950009 166.77 74.925 166.866667 74.7549992 166.915 74.5400013 166.915 74.28 166.915 74.0399988 166.833334 73.8300009 166.67 73.65 166.506666 73.4699991 166.300001 73.2966675 166.05 73.13 165.799999 72.9633325 165.531668 72.7966675 165.245 72.63 164.958332 72.4633325 164.690001 72.275001 164.44 72.065 164.189999 71.854999 163.983334 71.6150014 163.82 71.345 163.656666 71.0749986 163.575 70.7533352 163.575 70.38 163.575 70.0199982 163.641666 69.7166679 163.775 69.47 163.908334 69.2233321 164.083332 69.0250008 164.3 68.875 164.516668 68.7249992 164.763332 68.616667 165.04 68.55 165.316668 68.483333 165.601665 68.45 165.895 68.45 166.195001 68.45 166.484999 68.4799997 166.765 68.54 167.045001 68.6000003 167.298332 68.6766662 167.525 68.77 167.591667 68.7966668 167.625 68.8599995 167.625 68.96L167.625 70.3C167.625 70.3533336 167.608334 70.3949999 167.575 70.425 167.541667 70.4550001 167.501667 70.47 167.455 70.47 167.408333 70.47 167.366667 70.4550001 167.33 70.425 167.293333 70.3949999 167.268333 70.346667 167.255 70.28 167.221667 70.0333321 167.156667 69.8266675 167.06 69.66 166.963333 69.4933325 166.848334 69.3600005 166.715 69.26 166.581666 69.1599995 166.433334 69.0900002 166.27 69.05 166.106666 69.0099998 165.941668 68.99 165.775 68.99 165.634999 68.99 165.496667 69.0099998 165.36 69.05 165.223333 69.0900002 165.100001 69.1549996 164.99 69.245 164.879999 69.3350004 164.79 69.4533326 164.72 69.6 164.65 69.7466674 164.615 69.9233323 164.615 70.13 164.615 70.4100014 164.694999 70.6516657 164.855 70.855 165.015001 71.0583343 165.216665 71.2449992 165.46 71.415 165.703335 71.5850009 165.964999 71.7483325 166.245 71.905 166.525001 72.0616674 166.786665 72.234999 167.03 72.425 167.273335 72.6150009 167.474999 72.8333321 167.635 73.08 167.795001 73.3266679 167.875 73.6233316 167.875 73.97 167.875 74.370002 167.803334 74.7066653 167.66 74.98 167.516666 75.2533347 167.326668 75.4733325 167.09 75.64 166.853332 75.8066675 166.581668 75.9249997 166.275 75.995 165.968332 76.0650003 165.655002 76.1 165.335 76.1 165.014998 76.1 164.701668 76.0783336 164.395 76.035 164.088332 75.9916665 163.808335 75.9133339 163.555 75.8 163.475 75.7666665 163.435 75.6733341 163.435 75.52L163.435 74.05C163.435 73.983333 163.45 73.9350002 163.48 73.905 163.51 73.8749998 163.545 73.86 163.585 73.86 163.618334 73.86 163.651667 73.8716665 163.685 73.895 163.718334 73.9183334 163.741667 73.9533331 163.755 74zM62.664 93.704C62.8080007 93.704 62.9599992 93.6906668 63.12 93.664 63.2800008 93.6373332 63.4253327 93.5800004 63.556 93.492 63.6866673 93.4039996 63.7959995 93.2813341 63.884 93.124 63.9720004 92.9666659 64.016 92.754668 64.016 92.488 64.016 92.1093314 63.8933345 91.8426674 63.648 91.688 63.4026654 91.5333326 63.0533356 91.456 62.6 91.456L62.368 91.456C62.3626666 91.4773334 62.3520001 91.5599993 62.336 91.704 62.3199999 91.8480007 62.2986668 92.0306656 62.272 92.252 62.2453332 92.4733344 62.2173335 92.721332 62.188 92.996 62.1586665 93.270668 62.1266668 93.5519986 62.092 93.84 62.0573331 94.1280014 62.0253335 94.4106653 61.996 94.688 61.9666665 94.9653347 61.9400001 95.2159989 61.916 95.44 61.8919999 95.6640011 61.8720001 95.8493326 61.856 95.996 61.8399999 96.1426674 61.832 96.2319998 61.832 96.264 61.832 96.4186674 61.8813328 96.5146665 61.98 96.552 62.0786671 96.5893335 62.2346656 96.608 62.448 96.608 62.656001 96.608 62.859999 96.5880002 63.06 96.548 63.260001 96.5079998 63.4373325 96.4386672 63.592 96.34 63.7466674 96.2413328 63.8719995 96.1080008 63.968 95.94 64.0640005 95.7719992 64.112 95.5573346 64.112 95.296 64.112 94.8746646 63.9973345 94.564001 63.768 94.364 63.5386655 94.163999 63.2080021 94.064 62.776 94.064L62.672 94.064C62.5973329 94.064 62.5440001 94.0453335 62.512 94.008 62.4799998 93.9706665 62.464 93.9306669 62.464 93.888 62.464 93.8453331 62.4786665 93.8040002 62.508 93.764 62.5373335 93.7239998 62.5893329 93.704 62.664 93.704zM62.768 91.04C63.0560014 91.04 63.3279987 91.0653331 63.584 91.116 63.8400013 91.1666669 64.0626657 91.2466661 64.252 91.356 64.4413343 91.4653339 64.5919994 91.6079991 64.704 91.784 64.8160005 91.9600009 64.872 92.1706654 64.872 92.416 64.872 92.816002 64.772001 93.1399988 64.572 93.388 64.371999 93.6360012 64.1120016 93.8026662 63.792 93.888 63.9573341 93.9200002 64.1119993 93.973333 64.256 94.048 64.4000007 94.122667 64.5253328 94.2173328 64.632 94.332 64.7386672 94.4466672 64.8226663 94.5826659 64.884 94.74 64.9453336 94.8973341 64.976 95.0746657 64.976 95.272 64.976 95.5866682 64.9013341 95.8533322 64.752 96.072 64.6026659 96.2906678 64.4093345 96.4679993 64.172 96.604 63.9346655 96.7400007 63.6706681 96.8399997 63.38 96.904 63.0893319 96.9680003 62.8053347 97 62.528 97L60.32 97C60.2773331 97 60.2453334 96.9880001 60.224 96.964 60.2026665 96.9399999 60.192 96.9120002 60.192 96.88 60.192 96.7839995 60.2373329 96.7280001 60.328 96.712 60.4560006 96.6959999 60.5639995 96.6720002 60.652 96.64 60.7400004 96.6079998 60.813333 96.554667 60.872 96.48 60.9306669 96.405333 60.9773331 96.301334 61.012 96.168 61.0466668 96.034666 61.0773332 95.8560011 61.104 95.632 61.104 95.6159999 61.1119999 95.5480006 61.128 95.428 61.1440001 95.3079994 61.1626665 95.1560009 61.184 94.972 61.2053334 94.7879991 61.2293332 94.5800012 61.256 94.348 61.2826668 94.1159988 61.3093332 93.8800012 61.336 93.64 61.3626668 93.3999988 61.3893332 93.1640012 61.416 92.932 61.4426668 92.6999988 61.4653332 92.4906676 61.484 92.304 61.5026667 92.1173324 61.5186666 91.9640006 61.532 91.844 61.5453334 91.7239994 61.552 91.6560001 61.552 91.64 61.552 91.5439995 61.5160003 91.4773335 61.444 91.44 61.3719996 91.4026665 61.2160012 91.3653335 60.976 91.328 60.9386665 91.3226666 60.9106667 91.3053335 60.892 91.276 60.8733332 91.2466665 60.864 91.2133335 60.864 91.176 60.864 91.1386665 60.8733332 91.1066668 60.892 91.08 60.9106667 91.0533332 60.9386665 91.04 60.976 91.04L62.768 91.04zM67.96 92.832C68.1520009 92.832 68.3333325 92.8599997 68.504 92.916 68.6746675 92.9720003 68.8239993 93.0639994 68.952 93.192 69.0800006 93.3200006 69.1813329 93.4866656 69.256 93.692 69.330667 93.8973344 69.368 94.1493318 69.368 94.448 69.368 94.8586687 69.3093339 95.2253317 69.192 95.548 69.0746661 95.8706683 68.9213343 96.1439989 68.732 96.368 68.5426657 96.5920011 68.3266679 96.7639994 68.084 96.884 67.8413321 97.0040006 67.5946679 97.064 67.344 97.064 67.151999 97.064 66.9706675 97.0360003 66.8 96.98 66.6293325 96.9239997 66.4800006 96.833334 66.352 96.708 66.2239993 96.582666 66.122667 96.4186677 66.048 96.216 65.9733329 96.0133323 65.936 95.7626682 65.936 95.464 65.936 95.0479979 65.9946661 94.677335 66.112 94.352 66.2293339 94.026665 66.3826657 93.7520011 66.572 93.528 66.7613343 93.3039989 66.9773321 93.1320006 67.22 93.012 67.4626679 92.8919994 67.7093321 92.832 67.96 92.832zM67.824 93.224C67.6639992 93.224 67.5160007 93.2746662 67.38 93.376 67.2439993 93.4773338 67.1266671 93.623999 67.028 93.816 66.9293328 94.008001 66.8506669 94.2386653 66.792 94.508 66.733333 94.7773347 66.704 95.0799983 66.704 95.416 66.704 95.8320021 66.7773326 96.1453323 66.924 96.356 67.0706674 96.5666677 67.2559989 96.672 67.48 96.672 67.6400008 96.672 67.7879993 96.6213338 67.924 96.52 68.0600007 96.4186662 68.1773328 96.272001 68.276 96.08 68.3746671 95.887999 68.453333 95.6573347 68.512 95.388 68.5706669 95.1186653 68.6 94.8160017 68.6 94.48 68.6 94.0639979 68.529334 93.7506677 68.388 93.54 68.2466659 93.3293323 68.0586678 93.224 67.824 93.224zM72.312 92.832C72.5040009 92.832 72.6853325 92.8599997 72.856 92.916 73.0266675 92.9720003 73.1759993 93.0639994 73.304 93.192 73.4320006 93.3200006 73.5333329 93.4866656 73.608 93.692 73.682667 93.8973344 73.72 94.1493318 73.72 94.448 73.72 94.8586687 73.6613339 95.2253317 73.544 95.548 73.4266661 95.8706683 73.2733343 96.1439989 73.084 96.368 72.8946657 96.5920011 72.6786679 96.7639994 72.436 96.884 72.1933321 97.0040006 71.9466679 97.064 71.696 97.064 71.503999 97.064 71.3226675 97.0360003 71.152 96.98 70.9813325 96.9239997 70.8320006 96.833334 70.704 96.708 70.5759993 96.582666 70.474667 96.4186677 70.4 96.216 70.3253329 96.0133323 70.288 95.7626682 70.288 95.464 70.288 95.0479979 70.3466661 94.677335 70.464 94.352 70.5813339 94.026665 70.7346657 93.7520011 70.924 93.528 71.1133343 93.3039989 71.3293321 93.1320006 71.572 93.012 71.8146679 92.8919994 72.0613321 92.832 72.312 92.832zM72.176 93.224C72.0159992 93.224 71.8680007 93.2746662 71.732 93.376 71.5959993 93.4773338 71.4786671 93.623999 71.38 93.816 71.2813328 94.008001 71.2026669 94.2386653 71.144 94.508 71.085333 94.7773347 71.056 95.0799983 71.056 95.416 71.056 95.8320021 71.1293326 96.1453323 71.276 96.356 71.4226674 96.5666677 71.6079989 96.672 71.832 96.672 71.9920008 96.672 72.1399993 96.6213338 72.276 96.52 72.4120007 96.4186662 72.5293328 96.272001 72.628 96.08 72.7266671 95.887999 72.805333 95.6573347 72.864 95.388 72.9226669 95.1186653 72.952 94.8160017 72.952 94.48 72.952 94.0639979 72.881334 93.7506677 72.74 93.54 72.5986659 93.3293323 72.4106678 93.224 72.176 93.224zM77.424 93.832C77.424 93.7093327 77.3933336 93.6173336 77.332 93.556 77.2706663 93.4946664 77.1866672 93.464 77.08 93.464 76.9946662 93.464 76.8933339 93.4919997 76.776 93.548 76.6586661 93.6040003 76.5360006 93.6853328 76.408 93.792 76.2799993 93.8986672 76.1506673 94.0333325 76.02 94.196 75.8893327 94.3586675 75.7653339 94.543999 75.648 94.752L75.6 95.08C75.6640003 95.0746666 75.7533327 95.0573335 75.868 95.028 75.9826672 94.9986665 76.1079993 94.9573336 76.244 94.904 76.3800007 94.8506664 76.5173326 94.7880004 76.656 94.716 76.7946673 94.6439996 76.9213327 94.5626671 77.036 94.472 77.1506672 94.3813329 77.2439996 94.2826672 77.316 94.176 77.3880003 94.0693328 77.424 93.9546673 77.424 93.832zM75.736 94.168C75.944001 93.709331 76.1973318 93.3720011 76.496 93.156 76.7946681 92.9399989 77.0933318 92.832 77.392 92.832 77.6160011 92.832 77.7959993 92.8999993 77.932 93.036 78.0680007 93.1720007 78.136 93.3413323 78.136 93.544 78.136 93.7413343 78.0920004 93.9226658 78.004 94.088 77.9159995 94.2533342 77.7973341 94.4013327 77.648 94.532 77.4986659 94.6626673 77.3266676 94.7773328 77.132 94.876 76.9373323 94.9746672 76.7333344 95.0559997 76.52 95.12 76.6640007 95.3920014 76.7853328 95.6093325 76.884 95.772 76.9826671 95.9346675 77.0666663 96.0599996 77.136 96.148 77.2053337 96.2360004 77.2639997 96.2946665 77.312 96.324 77.3600002 96.3533335 77.4026665 96.368 77.44 96.368 77.4613334 96.368 77.5079996 96.3613334 77.58 96.348 77.6520003 96.3346666 77.7293329 96.3200001 77.812 96.304 77.8946671 96.2879999 77.9733329 96.2733334 78.048 96.26 78.122667 96.2466666 78.1733332 96.24 78.2 96.24 78.2586669 96.24 78.288 96.269333 78.288 96.328 78.288 96.3760002 78.2426671 96.4413329 78.152 96.524 78.0613329 96.6066671 77.9560006 96.6879996 77.836 96.768 77.7159994 96.8480004 77.5933339 96.917333 77.468 96.976 77.342666 97.034667 77.2453337 97.064 77.176 97.064 77.117333 97.064 77.050667 97.0453335 76.976 97.008 76.9013329 96.9706665 76.8133338 96.8906673 76.712 96.768 76.6106661 96.6453327 76.4960006 96.4706678 76.368 96.244 76.2399993 96.0173322 76.0960008 95.7120019 75.936 95.328L75.568 95.432 75.424 96.784C75.4186666 96.8693338 75.378667 96.9226666 75.304 96.944 75.2026661 96.9760002 75.0960005 97.0039999 74.984 97.028 74.8719994 97.0520001 74.8000001 97.064 74.768 97.064 74.7146664 97.064 74.688 97.034667 74.688 96.976 74.688 96.9439998 74.6973332 96.8413342 74.716 96.668 74.7346667 96.4946658 74.7613331 96.2760013 74.796 96.012 74.8306668 95.7479987 74.8679998 95.4520016 74.908 95.124 74.9480002 94.7959984 74.9906664 94.461335 75.036 94.12 75.0813335 93.778665 75.1239998 93.4440016 75.164 93.116 75.2040002 92.7879984 75.2413331 92.4933346 75.276 92.232 75.3106668 91.9706654 75.3373332 91.7546675 75.356 91.584 75.3746667 91.4133325 75.384 91.3146668 75.384 91.288 75.384 91.1866662 75.3640002 91.1160002 75.324 91.076 75.2839998 91.0359998 75.2106672 91.016 75.104 91.016L74.784 91.016C74.7413331 91.016 74.7080001 91.0026668 74.684 90.976 74.6599999 90.9493332 74.648 90.9173335 74.648 90.88 74.648 90.7946662 74.6986661 90.7413334 74.8 90.72L75.6 90.536C75.6640003 90.5199999 75.725333 90.5053334 75.784 90.492 75.8426669 90.4786666 75.8906665 90.472 75.928 90.472 76.0186671 90.472 76.0786665 90.4946664 76.108 90.54 76.1373335 90.5853336 76.152 90.645333 76.152 90.72 76.152 90.7626669 76.1426667 90.8693325 76.124 91.04 76.1053332 91.2106675 76.0800001 91.4173321 76.048 91.66 76.0159998 91.9026679 75.9826668 92.1599986 75.948 92.432 75.9133331 92.7040014 75.8800001 92.9613321 75.848 93.204 75.8159998 93.4466679 75.7880001 93.6573324 75.764 93.836 75.7399999 94.0146676 75.7253333 94.1253331 75.72 94.168L75.736 94.168zM82.048 96.512C82.2186675 96.6506674 82.399999 96.72 82.592 96.72 82.7840009 96.72 82.9746657 96.6546673 83.164 96.524 83.3533343 96.3933327 83.5226659 96.2173344 83.672 95.996 83.8213341 95.7746656 83.9413329 95.5186681 84.032 95.228 84.1226671 94.9373319 84.168 94.629335 84.168 94.304 84.168 94.0159986 84.1133339 93.8000007 84.004 93.656 83.8946661 93.5119993 83.7653341 93.44 83.616 93.44 83.4133323 93.44 83.2106677 93.5253325 83.008 93.696 82.8053323 93.8666675 82.5680013 94.1039985 82.296 94.408L82.048 96.512zM82.376 93.904C82.4880005 93.7546659 82.6013327 93.6146673 82.716 93.484 82.8306672 93.3533327 82.9493327 93.2400005 83.072 93.144 83.1946673 93.0479995 83.3199993 92.9720003 83.448 92.916 83.5760006 92.8599997 83.7093326 92.832 83.848 92.832 84.1626682 92.832 84.4226656 92.9439989 84.628 93.168 84.8333343 93.3920011 84.936 93.7253311 84.936 94.168 84.936 94.5786687 84.8720006 94.9613316 84.744 95.316 84.6159993 95.6706684 84.4400011 95.977332 84.216 96.236 83.9919989 96.494668 83.7280015 96.6973326 83.424 96.844 83.1199985 96.9906674 82.7920017 97.064 82.44 97.064 82.3013326 97.064 82.165334 97.0573334 82.032 97.044 81.898666 97.0306666 81.7773339 97.0120001 81.668 96.988 81.5586661 96.9639999 81.470667 96.9360002 81.404 96.904 81.337333 96.8719998 81.304 96.8346669 81.304 96.792 81.304 96.7653332 81.3133332 96.6693342 81.332 96.504 81.3506667 96.3386658 81.3759998 96.1280013 81.408 95.872 81.4400001 95.6159987 81.4759998 95.3293349 81.516 95.012 81.5560002 94.6946651 81.5973331 94.3706683 81.64 94.04 81.6826669 93.7093317 81.7239998 93.3853349 81.764 93.068 81.8040002 92.7506651 81.8399998 92.4640013 81.872 92.208 81.9040001 91.9519987 81.9293332 91.7413342 81.948 91.576 81.9666667 91.4106658 81.976 91.3146668 81.976 91.288 81.976 91.1866662 81.9560002 91.1160002 81.916 91.076 81.8759998 91.0359998 81.8026672 91.016 81.696 91.016L81.376 91.016C81.3333331 91.016 81.3000001 91.0026668 81.276 90.976 81.2519999 90.9493332 81.24 90.9173335 81.24 90.88 81.24 90.7946662 81.2906661 90.7413334 81.392 90.72L82.176 90.536C82.2400003 90.5199999 82.301333 90.5053334 82.36 90.492 82.4186669 90.4786666 82.4666665 90.472 82.504 90.472 82.5946671 90.472 82.6546665 90.4959998 82.684 90.544 82.7133335 90.5920002 82.728 90.6613329 82.728 90.752 82.728 90.7786668 82.7173334 90.8893324 82.696 91.084 82.6746665 91.2786676 82.6453335 91.5239985 82.608 91.82 82.5706665 92.1160015 82.5306669 92.4453315 82.488 92.808 82.4453331 93.1706685 82.4000002 93.5333315 82.352 93.896L82.376 93.904zM86.048 93.76C86.0319999 93.6959997 85.9973336 93.664 85.944 93.664 85.9226666 93.664 85.8840003 93.668 85.828 93.676 85.7719997 93.684 85.7133336 93.6946666 85.652 93.708 85.5906664 93.7213334 85.5320003 93.732 85.476 93.74 85.4199997 93.748 85.3786668 93.752 85.352 93.752 85.293333 93.752 85.264 93.7253336 85.264 93.672 85.264 93.613333 85.3173328 93.5373338 85.424 93.444 85.5306672 93.3506662 85.6559993 93.2586671 85.8 93.168 85.9440007 93.0773329 86.0879993 92.998667 86.232 92.932 86.3760007 92.865333 86.4826663 92.832 86.552 92.832 86.626667 92.832 86.6759999 92.8479998 86.7 92.88 86.7240001 92.9120002 86.7413333 92.9706662 86.752 93.056L87.2 96.672C87.3226673 96.4266654 87.4426661 96.1853345 87.56 95.948 87.6773339 95.7106655 87.7813329 95.4800011 87.872 95.256 87.9626671 95.0319989 88.0346664 94.820001 88.088 94.62 88.1413336 94.419999 88.168 94.2373342 88.168 94.072 88.168 93.9333326 88.1493335 93.8226671 88.112 93.74 88.0746665 93.6573329 88.0280003 93.5933336 87.972 93.548 87.9159997 93.5026664 87.854667 93.4733334 87.788 93.46 87.721333 93.4466666 87.6613336 93.44 87.608 93.44 87.608 93.247999 87.6639994 93.0986672 87.776 92.992 87.8880006 92.8853328 88.0426657 92.832 88.24 92.832 88.4160009 92.832 88.5639994 92.8866661 88.684 92.996 88.8040006 93.1053339 88.864 93.2799988 88.864 93.52 88.864 93.7333344 88.8026673 94.0173316 88.68 94.372 88.5573327 94.7266684 88.3973343 95.1066646 88.2 95.512 88.0026657 95.9173354 87.7773346 96.3266646 87.524 96.74 87.2706654 97.1533354 87.0120013 97.526665 86.748 97.86 86.4839987 98.193335 86.2253346 98.4653323 85.972 98.676 85.7186654 98.8866677 85.4933343 98.992 85.296 98.992 84.8426644 98.992 84.616 98.8053352 84.616 98.432 84.616 98.2933326 84.6639995 98.1733338 84.76 98.072 84.8560005 97.9706662 84.9653327 97.92 85.088 97.92 85.1360002 97.92 85.1773332 97.924 85.212 97.932 85.2466668 97.94 85.2799998 97.9493333 85.312 97.96 85.312 98.168001 85.3239999 98.3039997 85.348 98.368 85.3720001 98.4320003 85.4293329 98.464 85.52 98.464 85.594667 98.464 85.6799995 98.4320003 85.776 98.368 85.8720005 98.3039997 85.9706662 98.2186672 86.072 98.112 86.1733338 98.0053328 86.2759995 97.8840007 86.38 97.748 86.4840005 97.6119993 86.5839995 97.4720007 86.68 97.328L86.048 93.76zM93.776 92.976C93.776 93.0133335 93.7666668 93.1119992 93.748 93.272 93.7293332 93.4320008 93.7066668 93.6226656 93.68 93.844 93.6533332 94.0653344 93.6240002 94.3013321 93.592 94.552 93.5599998 94.8026679 93.5306668 95.0373322 93.504 95.256 93.4773332 95.4746678 93.4546668 95.6613326 93.436 95.816 93.4173332 95.9706674 93.408 96.0639998 93.408 96.096 93.408 96.1973338 93.4226665 96.281333 93.452 96.348 93.4813335 96.414667 93.5306663 96.4706664 93.6 96.516 93.6693337 96.5613336 93.7639994 96.5986665 93.884 96.628 94.0040006 96.6573335 94.1519991 96.6853332 94.328 96.712 94.3653335 96.7173334 94.3919999 96.7346665 94.408 96.764 94.4240001 96.7933335 94.432 96.8239998 94.432 96.856 94.432 96.8933335 94.4226668 96.9266665 94.404 96.956 94.3853332 96.9853335 94.3573335 97 94.32 97L91.584 97C91.5519998 97 91.5293334 96.9880001 91.516 96.964 91.5026666 96.9399999 91.496 96.9146668 91.496 96.888 91.496 96.8453331 91.5079999 96.8066668 91.532 96.772 91.5560001 96.7373332 91.5919998 96.7173334 91.64 96.712 91.832001 96.6906666 91.9919994 96.6613335 92.12 96.624 92.2480006 96.5866665 92.3519996 96.534667 92.432 96.468 92.5120004 96.401333 92.5719998 96.3133339 92.612 96.204 92.6520002 96.0946661 92.6826666 95.9573342 92.704 95.792 92.7093334 95.7493331 92.7199999 95.6693339 92.736 95.552 92.7520001 95.4346661 92.7693332 95.3026674 92.788 95.156 92.8066668 95.0093326 92.8253332 94.8546675 92.844 94.692 92.8626668 94.5293325 92.8813332 94.377334 92.9 94.236 92.9186668 94.094666 92.9333333 93.9760005 92.944 93.88 92.9546667 93.7839995 92.96 93.7280001 92.96 93.712 92.96 93.653333 92.9426668 93.6173334 92.908 93.604 92.8733332 93.5906666 92.826667 93.584 92.768 93.584L91.84 93.584C91.7973331 93.584 91.7680001 93.5720001 91.752 93.548 91.7359999 93.5239999 91.728 93.4960002 91.728 93.464 91.728 93.3839996 91.7679996 93.3306668 91.848 93.304 91.8746668 93.2986666 91.9359995 93.2826668 92.032 93.256 92.1280005 93.2293332 92.2399994 93.1986668 92.368 93.164 92.4960006 93.1293332 92.6319993 93.0933335 92.776 93.056 92.9200007 93.0186665 93.054666 92.9840002 93.18 92.952 93.305334 92.9199998 93.4119996 92.8933334 93.5 92.872 93.5880004 92.8506666 93.6426666 92.84 93.664 92.84 93.738667 92.84 93.776 92.8853329 93.776 92.976zM96.376 95.64C96.6213346 95.6826669 96.8373324 95.7546662 97.024 95.856 97.2106676 95.9573338 97.3653327 96.078666 97.488 96.22 97.6106673 96.361334 97.7026664 96.5146658 97.764 96.68 97.8253336 96.8453342 97.856 97.0159991 97.856 97.192 97.856 97.4746681 97.8053338 97.7213323 97.704 97.932 97.6026662 98.1426677 97.4666675 98.3173326 97.296 98.456 97.1253325 98.5946674 96.9240012 98.6986663 96.692 98.768 96.4599988 98.8373337 96.2160013 98.872 95.96 98.872 95.7839991 98.872 95.6173341 98.8586668 95.46 98.832 95.3026659 98.8053332 95.1640006 98.7680002 95.044 98.72 94.9239994 98.6719998 94.8293337 98.6173336 94.76 98.556 94.6906663 98.4946664 94.656 98.4293337 94.656 98.36 94.656 98.3226665 94.6679999 98.2906668 94.692 98.264 94.7160001 98.2373332 94.7519998 98.224 94.8 98.224 94.8373335 98.224 94.8746665 98.2346666 94.912 98.256 94.9493335 98.2773334 94.9999997 98.3026665 95.064 98.332 95.1280003 98.3613335 95.2093328 98.3866666 95.308 98.408 95.4066672 98.4293334 95.5333326 98.44 95.688 98.44 95.880001 98.44 96.0599992 98.4093336 96.228 98.348 96.3960008 98.2866664 96.5413327 98.1973339 96.664 98.08 96.7866673 97.9626661 96.8839996 97.8226675 96.956 97.66 97.0280004 97.4973325 97.064 97.312001 97.064 97.104 97.064 96.9439992 97.0386669 96.7893341 96.988 96.64 96.9373331 96.4906659 96.8613338 96.3573339 96.76 96.24 96.6586662 96.1226661 96.5320008 96.0280004 96.38 95.956 96.2279992 95.8839996 96.0506677 95.8426667 95.848 95.832 95.7039993 95.8266666 95.632 95.7733338 95.632 95.672 95.632 95.5759995 95.6959994 95.5146668 95.824 95.488 96.1173348 95.4399998 96.3586657 95.3640005 96.548 95.26 96.7373343 95.1559995 96.8853328 95.0400006 96.992 94.912 97.0986672 94.7839994 97.1733331 94.6506674 97.216 94.512 97.2586669 94.3733326 97.28 94.2453339 97.28 94.128 97.28 93.8559986 97.209334 93.6560006 97.068 93.528 96.926666 93.3999994 96.760001 93.336 96.568 93.336 96.3973325 93.336 96.2400007 93.3746663 96.096 93.452 95.9519993 93.5293337 95.8293338 93.6453326 95.728 93.8 95.6853331 93.8640003 95.6293337 93.896 95.56 93.896 95.5279998 93.896 95.5000001 93.8853334 95.476 93.864 95.4519999 93.8426666 95.44 93.8106669 95.44 93.768 95.44 93.709333 95.4626664 93.6280005 95.508 93.524 95.5533336 93.4199995 95.6306661 93.3160005 95.74 93.212 95.8493339 93.1079995 95.9919991 93.018667 96.168 92.944 96.3440009 92.869333 96.565332 92.832 96.832 92.832 96.9920008 92.832 97.1479992 92.8546664 97.3 92.9 97.4520008 92.9453336 97.5866661 93.0159995 97.704 93.112 97.8213339 93.2080005 97.9159996 93.3306659 97.988 93.48 98.0600004 93.6293341 98.096 93.807999 98.096 94.016 98.096 94.2026676 98.0560004 94.3866658 97.976 94.568 97.8959996 94.7493342 97.7813341 94.9133326 97.632 95.06 97.4826659 95.2066674 97.3013344 95.3319995 97.088 95.436 96.8746656 95.5400005 96.6373346 95.6079998 96.376 95.64zM100.472 93.288C100.472 93.3146668 100.462667 93.4013326 100.444 93.548 100.425333 93.6946674 100.402667 93.871999 100.376 94.08 100.349333 94.288001 100.321333 94.5106655 100.292 94.748 100.262667 94.9853345 100.236 95.207999 100.212 95.416 100.188 95.624001 100.168 95.8013326 100.152 95.948 100.136 96.0946674 100.128 96.1813332 100.128 96.208 100.128 96.3200006 100.189333 96.376 100.312 96.376 100.413334 96.376 100.517333 96.3573335 100.624 96.32 100.730667 96.2826665 100.829333 96.2413336 100.92 96.196L101.168 96.072C101.242667 96.0346665 101.301333 96.016 101.344 96.016 101.386667 96.016 101.408 96.0399998 101.408 96.088 101.408 96.1680004 101.348001 96.2639994 101.228 96.376 101.107999 96.4880006 100.958668 96.5946662 100.78 96.696 100.601332 96.7973338 100.408001 96.8839996 100.2 96.956 99.991999 97.0280004 99.7973342 97.064 99.616 97.064 99.5306662 97.064 99.4653336 97.0400002 99.42 96.992 99.3746664 96.9439998 99.352 96.882667 99.352 96.808 99.352 96.7813332 99.3626666 96.6786676 99.384 96.5 99.4053334 96.3213324 99.4306665 96.1066679 99.46 95.856 99.4893335 95.6053321 99.5226665 95.3346681 99.56 95.044 99.5973335 94.7533319 99.6319998 94.4826679 99.664 94.232 99.6960002 93.9813321 99.7226666 93.7680009 99.744 93.592 99.7653334 93.4159991 99.7786666 93.3173334 99.784 93.296L99.232 93.296C99.1679997 93.296 99.1240001 93.2786668 99.1 93.244 99.0759999 93.2093332 99.064 93.1706669 99.064 93.128 99.064 93.0746664 99.0786665 93.0266669 99.108 92.984 99.1373335 92.9413331 99.1839997 92.92 99.248 92.92L99.832 92.92 99.896 92.392C99.9013334 92.3439998 99.9119999 92.2973336 99.928 92.252 99.9440001 92.2066664 99.981333 92.1626669 100.04 92.12L100.432 91.84C100.48 91.8079998 100.522666 91.792 100.56 91.792 100.618667 91.792 100.648 91.821333 100.648 91.88 100.648 91.8960001 100.641333 91.9546662 100.628 92.056 100.614667 92.1573338 100.6 92.2679994 100.584 92.388 100.568 92.5080006 100.553333 92.6213328 100.54 92.728 100.526667 92.8346672 100.52 92.8986666 100.52 92.92L101.472 92.92C101.536 92.92 101.58 92.9359998 101.604 92.968 101.628 93.0000002 101.64 93.0373331 101.64 93.08 101.64 93.1280002 101.626667 93.1746664 101.6 93.22 101.573333 93.2653336 101.530667 93.288 101.472 93.288L100.472 93.288zM103.392 93.904C103.680001 93.5999985 103.957332 93.3453344 104.224 93.14 104.490668 92.9346656 104.757332 92.832 105.024 92.832 105.205334 92.832 105.357333 92.8853328 105.48 92.992 105.602667 93.0986672 105.664 93.255999 105.664 93.464 105.664 93.5173336 105.653333 93.6186659 105.632 93.768 105.610667 93.9173341 105.582667 94.091999 105.548 94.292 105.513333 94.492001 105.477334 94.7039989 105.44 94.928 105.402666 95.1520011 105.366667 95.359999 105.332 95.552 105.297333 95.744001 105.269333 95.906666 105.248 96.04 105.226667 96.173334 105.216 96.2533332 105.216 96.28 105.216 96.3173335 105.232 96.34 105.264 96.348 105.296 96.356 105.349333 96.36 105.424 96.36L105.936 96.36C106.037334 96.36 106.088 96.389333 106.088 96.448 106.088 96.4960002 106.030667 96.5546663 105.916 96.624 105.801333 96.6933337 105.665334 96.7599997 105.508 96.824 105.350666 96.8880003 105.190667 96.9439998 105.028 96.992 104.865333 97.0400002 104.738667 97.064 104.648 97.064 104.589333 97.064 104.542667 97.0533334 104.508 97.032 104.473333 97.0106666 104.456 96.9733336 104.456 96.92 104.456 96.8933332 104.466667 96.8026674 104.488 96.648 104.509333 96.4933326 104.537333 96.3040011 104.572 96.08 104.606667 95.8559989 104.644 95.6160013 104.684 95.36 104.724 95.1039987 104.761333 94.8626678 104.796 94.636 104.830667 94.4093322 104.858667 94.2160008 104.88 94.056 104.901333 93.8959992 104.912 93.7973335 104.912 93.76 104.912 93.6639995 104.890667 93.5960002 104.848 93.556 104.805333 93.5159998 104.741334 93.496 104.656 93.496 104.479999 93.496 104.290668 93.5733326 104.088 93.728 103.885332 93.8826674 103.632002 94.1093318 103.328 94.408L103.04 96.784C103.034667 96.8693338 102.994667 96.9226666 102.92 96.944 102.818666 96.9760002 102.712001 97.0039999 102.6 97.028 102.487999 97.0520001 102.416 97.064 102.384 97.064 102.330666 97.064 102.304 97.034667 102.304 96.976 102.304 96.9439998 102.313333 96.8413342 102.332 96.668 102.350667 96.4946658 102.377333 96.2760013 102.412 96.012 102.446667 95.7479987 102.484 95.4520016 102.524 95.124 102.564 94.7959984 102.606666 94.461335 102.652 94.12 102.697334 93.778665 102.74 93.4440016 102.78 93.116 102.82 92.7879984 102.857333 92.4933346 102.892 92.232 102.926667 91.9706654 102.953333 91.7546675 102.972 91.584 102.990667 91.4133325 103 91.3146668 103 91.288 103 91.1866662 102.98 91.1160002 102.94 91.076 102.9 91.0359998 102.826667 91.016 102.72 91.016L102.4 91.016C102.357333 91.016 102.324 91.0026668 102.3 90.976 102.276 90.9493332 102.264 90.9173335 102.264 90.88 102.264 90.7946662 102.314666 90.7413334 102.416 90.72L103.216 90.536C103.28 90.5199999 103.341333 90.5053334 103.4 90.492 103.458667 90.4786666 103.506666 90.472 103.544 90.472 103.634667 90.472 103.694667 90.4946664 103.724 90.54 103.753333 90.5853336 103.768 90.645333 103.768 90.72 103.768 90.7626669 103.758667 90.8639992 103.74 91.024 103.721333 91.1840008 103.698667 91.3733322 103.672 91.592 103.645333 91.8106678 103.614667 92.0466654 103.58 92.3 103.545333 92.5533346 103.513333 92.7906656 103.484 93.012 103.454667 93.2333344 103.429333 93.4266658 103.408 93.592 103.386667 93.7573342 103.373333 93.8613331 103.368 93.904L103.392 93.904zM110.864 92.44L110.816 92.44 109.848 95.832C109.837333 95.8746669 109.821333 95.9346663 109.8 96.012 109.778667 96.0893337 109.768 96.1546664 109.768 96.208 109.768 96.3520007 109.825333 96.461333 109.94 96.536 110.054667 96.610667 110.215999 96.6693331 110.424 96.712 110.461334 96.7226667 110.489333 96.7426665 110.508 96.772 110.526667 96.8013335 110.536 96.8319998 110.536 96.864 110.536 96.9013335 110.526667 96.9333332 110.508 96.96 110.489333 96.9866668 110.461334 97 110.424 97L108.44 97C108.408 97 108.385333 96.9880001 108.372 96.964 108.358667 96.9399999 108.352 96.9146668 108.352 96.888 108.352 96.8506665 108.364 96.8146668 108.388 96.78 108.412 96.7453332 108.445333 96.7226667 108.488 96.712 108.632001 96.6906666 108.746666 96.6640002 108.832 96.632 108.917334 96.5999998 108.986666 96.5573336 109.04 96.504 109.093334 96.4506664 109.136 96.3880004 109.168 96.316 109.2 96.2439996 109.229333 96.1600005 109.256 96.064L110.376 92.208C110.392 92.149333 110.409333 92.0853337 110.428 92.016 110.446667 91.9466663 110.456 91.8880002 110.456 91.84 110.456 91.7013326 110.397334 91.5813338 110.28 91.48 110.162666 91.3786662 110.002668 91.3226667 109.8 91.312 109.762666 91.312 109.734667 91.2986668 109.716 91.272 109.697333 91.2453332 109.688 91.2160002 109.688 91.184 109.688 91.1466665 109.7 91.1133335 109.724 91.084 109.748 91.0546665 109.781333 91.04 109.824 91.04L111.344 91.04 112.52 95.56 112.56 95.56 114.624 91.048 116.144 91.048C116.176 91.048 116.2 91.0599999 116.216 91.084 116.232 91.1080001 116.24 91.1359998 116.24 91.168 116.24 91.2106669 116.228 91.2493332 116.204 91.284 116.18 91.3186668 116.146667 91.336 116.104 91.336 115.853332 91.3413334 115.673334 91.4039994 115.564 91.524 115.454666 91.6440006 115.4 91.7866658 115.4 91.952L115.4 95.936C115.4 96.1760012 115.445333 96.3546661 115.536 96.472 115.626667 96.5893339 115.797332 96.6693331 116.048 96.712 116.085334 96.7226667 116.113333 96.7426665 116.132 96.772 116.150667 96.8013335 116.16 96.8319998 116.16 96.864 116.16 96.9013335 116.150667 96.9333332 116.132 96.96 116.113333 96.9866668 116.085334 97 116.048 97L113.832 97C113.8 97 113.777333 96.9880001 113.764 96.964 113.750667 96.9399999 113.744 96.9146668 113.744 96.888 113.744 96.8506665 113.756 96.8146668 113.78 96.78 113.804 96.7453332 113.837333 96.7226667 113.88 96.712 114.018667 96.6906666 114.132 96.6613335 114.22 96.624 114.308 96.5866665 114.378666 96.5400003 114.432 96.484 114.485334 96.4279997 114.524 96.3640004 114.548 96.292 114.572 96.2199996 114.589333 96.1360005 114.6 96.04 114.605333 96.0026665 114.608 95.8933342 114.608 95.712 114.608 95.5306658 114.609333 95.3133346 114.612 95.06 114.614667 94.8066654 114.616 94.5360014 114.616 94.248 114.616 93.9599986 114.614667 93.6880013 114.612 93.432 114.609333 93.1759987 114.608 92.9560009 114.608 92.772L114.608 92.432 114.544 92.432 112.344 97C112.306666 97.074667 112.258667 97.112 112.2 97.112 112.136 97.112 112.096 97.0773337 112.08 97.008L110.864 92.44zM119.648 93.408C119.477332 93.2693326 119.298668 93.2 119.112 93.2 118.925332 93.2 118.746668 93.2639994 118.576 93.392 118.405332 93.5200006 118.253334 93.6933322 118.12 93.912 117.986666 94.1306678 117.88 94.3839986 117.8 94.672 117.72 94.9600014 117.68 95.266665 117.68 95.592 117.68 95.8800014 117.722666 96.0959993 117.808 96.24 117.893334 96.3840007 118.010666 96.456 118.16 96.456 118.336001 96.456 118.517332 96.3706675 118.704 96.2 118.890668 96.0293325 119.119999 95.7920015 119.392 95.488L119.648 93.408zM119.992 96.256C119.992 96.3093336 120.002667 96.3426666 120.024 96.356 120.045333 96.3693334 120.101333 96.376 120.192 96.376L120.728 96.376C120.76 96.376 120.789333 96.3826666 120.816 96.396 120.842667 96.4093334 120.856 96.4373331 120.856 96.48 120.856 96.5226669 120.798667 96.577333 120.684 96.644 120.569333 96.710667 120.433334 96.7746664 120.276 96.836 120.118666 96.8973336 119.958667 96.9506664 119.796 96.996 119.633333 97.0413336 119.506667 97.064 119.416 97.064 119.357333 97.064 119.310667 97.0520001 119.276 97.028 119.241333 97.0039999 119.224 96.962667 119.224 96.904 119.224 96.8559998 119.237333 96.7493342 119.264 96.584 119.290667 96.4186658 119.322666 96.2240011 119.36 96L119.336 95.992C119.223999 96.1413341 119.113334 96.2813327 119.004 96.412 118.894666 96.5426673 118.781334 96.6559995 118.664 96.752 118.546666 96.8480005 118.421334 96.9239997 118.288 96.98 118.154666 97.0360003 118.013334 97.064 117.864 97.064 117.581332 97.064 117.353334 96.9520011 117.18 96.728 117.006666 96.5039989 116.92 96.1706689 116.92 95.728 116.92 95.2853311 116.985333 94.8853351 117.116 94.528 117.246667 94.1706649 117.418666 93.8666679 117.632 93.616 117.845334 93.3653321 118.085332 93.1720007 118.352 93.036 118.618668 92.8999993 118.887999 92.832 119.16 92.832 119.346668 92.832 119.535999 92.869333 119.728 92.944 119.834667 92.9173332 119.933333 92.8920001 120.024 92.868 120.114667 92.8439999 120.184 92.832 120.232 92.832 120.328 92.832 120.376 92.8799995 120.376 92.976 120.376 93.0026668 120.366667 93.0986658 120.348 93.264 120.329333 93.4293342 120.305333 93.6279988 120.276 93.86 120.246667 94.0920012 120.216 94.341332 120.184 94.608 120.152 94.874668 120.121333 95.1239988 120.092 95.356 120.062667 95.5880012 120.038667 95.7879992 120.02 95.956 120.001333 96.1240008 119.992 96.2239998 119.992 96.256zM122.896 94.312C123.040001 94.0506654 123.169333 93.8266676 123.284 93.64 123.398667 93.4533324 123.507999 93.3013339 123.612 93.184 123.716001 93.0666661 123.818666 92.9800003 123.92 92.924 124.021334 92.8679997 124.133333 92.84 124.256 92.84 124.416001 92.84 124.537333 92.8919995 124.62 92.996 124.702667 93.1000005 124.744 93.218666 124.744 93.352 124.744 93.4746673 124.709334 93.5919994 124.64 93.704 124.570666 93.8160006 124.464001 93.8959998 124.32 93.944 124.293333 93.8479995 124.249334 93.7786669 124.188 93.736 124.126666 93.6933331 124.074667 93.672 124.032 93.672 123.957333 93.672 123.882667 93.6986664 123.808 93.752 123.733333 93.8053336 123.656 93.8773329 123.576 93.968L122.872 94.784 122.624 96.784C122.618667 96.8693338 122.578667 96.9226666 122.504 96.944 122.402666 96.9760002 122.296001 97.0039999 122.184 97.028 122.071999 97.0520001 122 97.064 121.968 97.064 121.914666 97.064 121.888 97.034667 121.888 96.976 121.888 96.9493332 121.898667 96.8506675 121.92 96.68 121.941333 96.5093325 121.968 96.3053345 122 96.068 122.032 95.8306655 122.065333 95.5773347 122.1 95.308 122.134667 95.0386653 122.168 94.7880012 122.2 94.556 122.232 94.3239988 122.258667 94.1280008 122.28 93.968 122.301333 93.8079992 122.312 93.7226667 122.312 93.712 122.312 93.6639998 122.297333 93.6346667 122.268 93.624 122.238667 93.6133333 122.186667 93.608 122.112 93.608L121.648 93.608C121.616 93.608 121.586667 93.6013334 121.56 93.588 121.533333 93.5746666 121.52 93.5466669 121.52 93.504 121.52 93.4613331 121.574666 93.402667 121.684 93.328 121.793334 93.253333 121.922666 93.178667 122.072 93.104 122.221334 93.029333 122.374666 92.9653336 122.532 92.912 122.689334 92.8586664 122.813333 92.832 122.904 92.832 122.962667 92.832 123.009333 92.8439999 123.044 92.868 123.078667 92.8920001 123.096 92.933333 123.096 92.992 123.096 93.0240002 123.086667 93.0999994 123.068 93.22 123.049333 93.3400006 123.026667 93.4719993 123 93.616 122.973333 93.7600007 122.948 93.898666 122.924 94.032 122.9 94.165334 122.882667 94.2586664 122.872 94.312L122.896 94.312zM126.584 96.472C126.749334 96.472 126.901333 96.442667 127.04 96.384 127.178667 96.325333 127.3 96.262667 127.404 96.196 127.508001 96.129333 127.594666 96.066667 127.664 96.008 127.733334 95.949333 127.784 95.92 127.816 95.92 127.837333 95.92 127.858667 95.9279999 127.88 95.944 127.901333 95.9600001 127.912 95.9893331 127.912 96.032 127.912 96.1173338 127.869334 96.2186661 127.784 96.336 127.698666 96.4533339 127.582667 96.5653328 127.436 96.672 127.289333 96.7786672 127.117334 96.869333 126.92 96.944 126.722666 97.018667 126.512001 97.056 126.288 97.056 126.090666 97.056 125.913334 97.0120004 125.756 96.924 125.598666 96.8359996 125.465334 96.7173341 125.356 96.568 125.246666 96.4186659 125.162667 96.244001 125.104 96.044 125.045333 95.843999 125.016 95.6293345 125.016 95.4 125.016 94.9626645 125.074666 94.5826683 125.192 94.26 125.309334 93.9373317 125.461332 93.6706677 125.648 93.46 125.834668 93.2493323 126.047999 93.0920005 126.288 92.988 126.528001 92.8839995 126.773332 92.832 127.024 92.832 127.322668 92.832 127.558666 92.8893328 127.732 93.004 127.905334 93.1186672 127.992 93.2773323 127.992 93.48 127.992 93.688001 127.922667 93.8306663 127.784 93.908 127.645333 93.9853337 127.474668 94.024 127.272 94.024 127.272 93.9333329 127.269333 93.8386672 127.264 93.74 127.258667 93.6413328 127.24 93.5520004 127.208 93.472 127.176 93.3919996 127.128 93.3253336 127.064 93.272 127 93.2186664 126.912001 93.192 126.8 93.192 126.693333 93.192 126.576001 93.2333329 126.448 93.316 126.319999 93.3986671 126.201334 93.5213325 126.092 93.684 125.982666 93.8466675 125.892 94.0533321 125.82 94.304 125.748 94.5546679 125.712 94.8479983 125.712 95.184 125.712 95.4346679 125.738666 95.6426658 125.792 95.808 125.845334 95.9733342 125.913333 96.1053328 125.996 96.204 126.078667 96.3026672 126.172 96.3719998 126.276 96.412 126.380001 96.4520002 126.482666 96.472 126.584 96.472zM129.808 93.904C130.096001 93.5999985 130.373332 93.3453344 130.64 93.14 130.906668 92.9346656 131.173332 92.832 131.44 92.832 131.621334 92.832 131.773333 92.8853328 131.896 92.992 132.018667 93.0986672 132.08 93.255999 132.08 93.464 132.08 93.5173336 132.069333 93.6186659 132.048 93.768 132.026667 93.9173341 131.998667 94.091999 131.964 94.292 131.929333 94.492001 131.893334 94.7039989 131.856 94.928 131.818667 95.1520011 131.782667 95.359999 131.748 95.552 131.713333 95.744001 131.685333 95.906666 131.664 96.04 131.642667 96.173334 131.632 96.2533332 131.632 96.28 131.632 96.3173335 131.648 96.34 131.68 96.348 131.712 96.356 131.765333 96.36 131.84 96.36L132.352 96.36C132.453334 96.36 132.504 96.389333 132.504 96.448 132.504 96.4960002 132.446667 96.5546663 132.332 96.624 132.217333 96.6933337 132.081334 96.7599997 131.924 96.824 131.766666 96.8880003 131.606668 96.9439998 131.444 96.992 131.281333 97.0400002 131.154667 97.064 131.064 97.064 131.005333 97.064 130.958667 97.0533334 130.924 97.032 130.889333 97.0106666 130.872 96.9733336 130.872 96.92 130.872 96.8933332 130.882667 96.8026674 130.904 96.648 130.925333 96.4933326 130.953333 96.3040011 130.988 96.08 131.022667 95.8559989 131.06 95.6160013 131.1 95.36 131.14 95.1039987 131.177333 94.8626678 131.212 94.636 131.246667 94.4093322 131.274667 94.2160008 131.296 94.056 131.317333 93.8959992 131.328 93.7973335 131.328 93.76 131.328 93.6639995 131.306667 93.5960002 131.264 93.556 131.221333 93.5159998 131.157334 93.496 131.072 93.496 130.895999 93.496 130.706668 93.5733326 130.504 93.728 130.301332 93.8826674 130.048002 94.1093318 129.744 94.408L129.456 96.784C129.450667 96.8693338 129.410667 96.9226666 129.336 96.944 129.234666 96.9760002 129.128001 97.0039999 129.016 97.028 128.903999 97.0520001 128.832 97.064 128.8 97.064 128.746666 97.064 128.72 97.034667 128.72 96.976 128.72 96.9439998 128.729333 96.8413342 128.748 96.668 128.766667 96.4946658 128.793333 96.2760013 128.828 96.012 128.862667 95.7479987 128.9 95.4520016 128.94 95.124 128.98 94.7959984 129.022666 94.461335 129.068 94.12 129.113334 93.778665 129.156 93.4440016 129.196 93.116 129.236 92.7879984 129.273333 92.4933346 129.308 92.232 129.342667 91.9706654 129.369333 91.7546675 129.388 91.584 129.406667 91.4133325 129.416 91.3146668 129.416 91.288 129.416 91.1866662 129.396 91.1160002 129.356 91.076 129.316 91.0359998 129.242667 91.016 129.136 91.016L128.816 91.016C128.773333 91.016 128.74 91.0026668 128.716 90.976 128.692 90.9493332 128.68 90.9173335 128.68 90.88 128.68 90.7946662 128.730666 90.7413334 128.832 90.72L129.632 90.536C129.696 90.5199999 129.757333 90.5053334 129.816 90.492 129.874667 90.4786666 129.922667 90.472 129.96 90.472 130.050667 90.472 130.110667 90.4946664 130.14 90.54 130.169334 90.5853336 130.184 90.645333 130.184 90.72 130.184 90.7626669 130.174667 90.8639992 130.156 91.024 130.137333 91.1840008 130.114667 91.3733322 130.088 91.592 130.061333 91.8106678 130.030667 92.0466654 129.996 92.3 129.961333 92.5533346 129.929334 92.7906656 129.9 93.012 129.870667 93.2333344 129.845333 93.4266658 129.824 93.592 129.802667 93.7573342 129.789333 93.8613331 129.784 93.904L129.808 93.904z"/>
  </g>
</svg>
