<svg xmlns="http://www.w3.org/2000/svg" width="150" height="25" viewBox="0 0 150 25">
  <path fill="#000000" fill-rule="evenodd" d="M24.9893285,16.4364207 L17.5751856,11.5998448 L31.1620482,1.01705678 L20.8374932,1.01705678 L7.04637257,12.0205316 L7.04637257,1.01705678 L0,1.01705678 L0,23.9272926 L7.04637257,23.9272926 L7.04637257,19.4055704 L11.9607359,15.7077593 L20.4681354,21.3724798 C23.6706472,23.5203641 26.6472051,24.0098425 28.7575186,24.0098425 C30.679449,24.0098425 31.8848888,23.5944473 31.8848888,23.5944473 L31.8848888,18.2451096 C28.8707601,18.4329635 26.1952975,17.2269945 24.9893285,16.4364207 L24.9893285,16.4364207 Z M92.3108673,17.9731184 C90.9165153,18.2763304 89.033214,18.5012259 86.0196144,18.5012259 C83.0038982,18.5012259 81.2333092,18.2763304 79.8389572,17.9731184 C77.2396945,17.4090276 76.8623992,16.2030586 76.8623992,12.4348685 C76.8623992,8.10152929 77.2396945,7.19665567 79.8389572,6.66907731 C81.2333092,6.40608188 83.0038982,6.17959889 86.0196144,6.17959889 C89.033214,6.17959889 90.9165153,6.40608188 92.3108673,6.66907731 C94.9111883,7.19665567 95.2884836,8.10152929 95.2884836,12.4348685 C95.2884836,16.2030586 94.9111883,17.4090276 92.3108673,17.9731184 L92.3108673,17.9731184 Z M97.2479848,1.31868132 C94.8741467,0.565678302 91.2191981,-7.10542736e-15 86.0196144,-7.10542736e-15 C80.856014,-7.10542736e-15 77.2015946,0.565678302 74.8266982,1.31868132 C70.1546928,2.82627485 69.740356,6.74474803 69.702256,12.3967686 C69.702256,18.0117475 70.0409222,21.9677914 74.7891274,23.4759141 C77.1645529,24.228388 80.8189724,24.7945955 86.0196144,24.7945955 C91.2567689,24.7945955 94.9111883,24.228388 97.2850264,23.4759141 C102.033232,21.9677914 102.371898,18.0117475 102.371898,12.3967686 C102.334856,6.74474803 101.920519,2.82627485 97.2479848,1.31868132 L97.2479848,1.31868132 Z M130.519288,14.507082 L114.3919,1.01705678 L107.232815,1.01705678 L107.232815,23.9272926 L114.316759,23.9272926 L114.316759,10.136172 L130.745771,23.9272926 L137.339707,23.9272926 L137.339707,1.01705678 L130.519288,1.01705678 L130.519288,14.507082 Z M142.953627,23.9272926 L150,23.9272926 L150,1.01705678 L142.953627,1.01705678 L142.953627,23.9272926 Z M58.0590196,14.6203235 C58.0590196,16.5798247 57.2679167,17.4090276 55.9868061,17.8233644 C54.6681248,18.2377013 52.4826698,18.4641843 50.1464026,18.4641843 C47.8477061,18.4641843 45.6998218,18.2377013 44.3811405,17.8233644 C43.10003,17.4090276 42.308927,16.5798247 42.308927,14.6203235 L42.308927,1.01705678 L35.0360715,1.01705678 L35.0360715,15.9765756 C35.0360715,17.6725522 35.149313,18.8404212 35.5636498,19.8585363 C37.4480095,24.3416295 45.4362973,24.7945955 50.1839733,24.7945955 C54.8940786,24.7945955 62.8823664,24.3416295 64.7661969,19.8585363 C65.1805338,18.8404212 65.2937752,17.6725522 65.2937752,15.9765756 L65.2937752,1.01705678 L58.0590196,1.01705678 L58.0590196,14.6203235 Z"/>
</svg>
