<svg xmlns="http://www.w3.org/2000/svg" width="20" height="20" viewBox="0 0 20 20" xmlns:xlink="http://www.w3.org/1999/xlink">
  <defs>
    <circle id="a" cx="10" cy="10" r="10"/>
    <mask id="b" width="20" height="20" x="0" y="0" fill="white">
      <use xlink:href="#a"/>
    </mask>
  </defs>
  <g fill="none" fill-rule="evenodd">
    <use stroke="#8C8C8C" stroke-width="2" mask="url(#b)" xlink:href="#a"/>
    <g fill="#7F7F7F" transform="translate(5 3)">
      <path d="M5.00555809,0 C2.26124344,0 0.0285493209,2.07845986 0.0285493209,4.63323171 C0.0285493209,5.65986718 0.677815171,7.2211907 2.07183943,9.54676292 C3.02309564,11.1335808 3.96996653,12.4738974 4.00991172,12.5303572 L4.69428995,13.4960616 C4.7632916,13.5934569 4.8802036,13.6520551 5.00555809,13.6520551 C5.13091258,13.6520551 5.24782459,13.5934569 5.31682624,13.4960616 L6.00117464,12.5304127 C6.04073201,12.4745917 6.98071168,11.1458559 7.93927676,9.54676292 C9.33330102,7.22130179 9.98256687,5.65997827 9.98256687,4.63323171 C9.98256687,2.07845986 7.74987275,0 5.00555809,0 L5.00555809,0 Z M7.28804199,9.20842062 C6.34281186,10.7851574 5.41768857,12.0930366 5.37869802,12.1479968 L5.00555809,12.6745199 L4.6325375,12.1481356 C4.59333812,12.0927311 3.66111479,10.7731323 2.7230742,9.20842062 C1.43000177,7.05122806 0.774351851,5.5118997 0.774351851,4.63323171 C0.774351851,2.46129239 2.67244912,0.694291853 5.00555809,0.694291853 C7.33866706,0.694291853 9.23676434,2.46129239 9.23676434,4.63323171 C9.23676434,5.51201079 8.58111442,7.0512836 7.28804199,9.20842062 L7.28804199,9.20842062 Z"/>
      <path d="M5.00555809,2.03541377 C3.48397177,2.03541377 2.24608873,3.18782716 2.24608873,4.60429362 C2.24608873,6.02076009 3.48397177,7.17317348 5.00555809,7.17317348 C6.52714442,7.17317348 7.76502745,6.02076009 7.76502745,4.60429362 C7.76502745,3.18782716 6.52714442,2.03541377 5.00555809,2.03541377 L5.00555809,2.03541377 Z M5.00555809,6.47888163 C3.89520729,6.47888163 2.99189126,5.63795533 2.99189126,4.60429362 C2.99189126,3.57063191 3.89520729,2.72970562 5.00555809,2.72970562 C6.11593873,2.72970562 7.01922492,3.57063191 7.01922492,4.60429362 C7.01922492,5.63795533 6.11593873,6.47888163 5.00555809,6.47888163 L5.00555809,6.47888163 Z"/>
    </g>
  </g>
</svg>
