<svg xmlns="http://www.w3.org/2000/svg" width="20" height="20" viewBox="0 0 20 20" xmlns:xlink="http://www.w3.org/1999/xlink">
  <defs>
    <circle id="a" cx="10.12" cy="10.55" r="10"/>
    <mask id="b" width="20" height="20" x="0" y="0" fill="white">
      <use xlink:href="#a"/>
    </mask>
  </defs>
  <g fill="none" fill-rule="evenodd" transform="translate(-.12 -.55)">
    <use stroke="#8C8C8C" stroke-width="2" mask="url(#b)" xlink:href="#a"/>
    <path stroke="#979797" d="M13.5153061,11.7383108 C13.2917006,11.528638 13.0304792,11.4178674 12.7567192,11.4178674 C12.4829593,11.4178674 12.2217379,11.528638 12.0002222,11.7363328 L11.9437984,11.78974 C11.7201929,11.9994129 11.4882283,12.2169979 11.2646228,12.434583 C11.2186479,12.4128245 11.1726729,12.391066 11.1287877,12.3693075 C11.026389,12.3218344 10.9281697,12.2763393 10.8424891,12.2249101 C10.1695829,11.8253449 9.55101072,11.2932505 8.95333625,10.5950004 C8.6628581,10.2567545 8.46015032,9.95609159 8.3180459,9.65147254 C8.51657413,9.46949232 8.71092283,9.28355602 8.90109197,9.10157581 C8.94915671,9.05608075 8.99931121,9.00860765 9.04737594,8.9631126 C9.51339484,8.52003034 9.51130507,7.94639706 9.04528617,7.50133676 C8.90318175,7.3648516 8.75689778,7.22836644 8.61688314,7.09583737 C8.55419001,7.036496 8.49149688,6.97715462 8.42880376,6.91781325 C8.36193109,6.85451578 8.29714819,6.79319636 8.23027552,6.7298989 C8.0881711,6.59341374 7.93979737,6.45297249 7.79142364,6.31648733 C7.56781816,6.10879252 7.30450703,6 7.03283681,6 C6.7611666,6 6.49785547,6.10879252 6.27633976,6.31648733 C6.16976144,6.41736766 6.06109336,6.518248 5.95869458,6.61715029 C5.80823108,6.76154763 5.65149826,6.90990107 5.49476545,7.05232036 C5.20219753,7.31540045 5.0391954,7.64771215 5.00784883,8.04134326 C4.9597841,8.66047159 5.14159417,9.22025855 5.3045963,9.63960426 C5.67657551,10.5870882 6.24499319,11.485121 7.04328567,12.3851318 C8.0380166,13.5047057 9.23545531,14.3908703 10.6021655,15.0218669 C11.354483,15.3680249 12.0002222,15.544071 12.6292432,15.5776977 C12.6752182,15.5796758 12.7211931,15.5816538 12.7650783,15.5816538 C13.2958801,15.5816538 13.7326422,15.4036297 14.062826,15.0554936 C14.2049305,14.9051622 14.3574837,14.7647209 14.5183961,14.6163675 C14.5998972,14.5412017 14.683488,14.464058 14.7670788,14.3849361 C15.2351875,13.9398758 15.2372773,13.3701986 14.7754379,12.9290944 C14.3512144,12.523595 13.9269909,12.1240298 13.5153061,11.7383108 Z" transform="rotate(20 10.06 10.79)"/>
  </g>
</svg>
