<?xml version="1.0" encoding="UTF-8" standalone="no"?>
<svg width="22px" height="19px" viewBox="0 0 22 19" version="1.1" xmlns="http://www.w3.org/2000/svg" xmlns:xlink="http://www.w3.org/1999/xlink">
    <!-- Generator: Sketch 3.6.1 (26313) - http://www.bohemiancoding.com/sketch -->
    <title>camera-icon</title>
    <desc>Created with Sketch.</desc>
    <defs></defs>
    <g id="Page-1" stroke="none" stroke-width="1" fill="none" fill-rule="evenodd">
        <g id="Site_search_desktop-lrg" transform="translate(-49.000000, -147.000000)" fill="#FFFFFF">
            <g id="hero" transform="translate(0.000000, 70.000000)">
                <g id="caption-top" transform="translate(36.000000, 69.000000)">
                    <g id="camera-icon">
                        <g id="Capa_1" transform="translate(13.000000, 8.000000)">
                            <g id="Group">
                                <path d="M19.0425532,3.62863506 L16.7404255,3.61603563 L14.5319149,0.369583201 C14.4,0.167992364 14.1702128,0.0377982819 13.9276596,0.0377982819 L7.98723404,0.0377982819 C7.74468085,0.0377982819 7.52765957,0.167992364 7.39574468,0.361183583 L5.11489362,3.62023544 L2.9787234,3.63283487 C1.36170213,3.63283487 0.0382978723,4.94317531 0.0382978723,6.53490296 L0.0382978723,15.9256761 C0.0382978723,17.5216036 1.36595745,18.852943 2.9787234,18.852943 L19.0382979,18.852943 C20.6553191,18.852943 21.9787234,17.5216036 21.9787234,15.9256761 L21.9787234,6.53490296 C21.987234,4.9389755 20.6595745,3.62863506 19.0425532,3.62863506 L19.0425532,3.62863506 Z M20.5404255,15.9214763 C20.5404255,16.7320395 19.8638298,17.4208081 19.0468085,17.4208081 L2.98297872,17.4208081 C2.16170213,17.4208081 1.4893617,16.7320395 1.4893617,15.9214763 L1.4893617,6.53490296 C1.4893617,5.7243398 2.16595745,5.06076997 2.98297872,5.06076997 L5.50212766,5.06076997 C5.74468085,5.06076997 5.96170213,4.93057588 6.09361702,4.74158447 L8.37446809,1.48253261 L13.5446809,1.48253261 L15.7404255,4.72058543 C15.8723404,4.90957684 16.1021277,5.03977092 16.3319149,5.03977092 L19.0340426,5.06496977 C19.8553191,5.06496977 20.5276596,5.73273942 20.5276596,6.53910277 L20.5276596,15.9298759 L20.5404255,15.9214763 L20.5404255,15.9214763 L20.5404255,15.9214763 Z" id="Shape"></path>
                                <path d="M11.0723404,5.34215717 C8.23829787,5.34215717 5.94893617,7.6142539 5.94893617,10.3987273 C5.94893617,13.1832008 8.25106383,15.4552975 11.0723404,15.4552975 C13.893617,15.4552975 16.1957447,13.1832008 16.1957447,10.3987273 C16.1957447,7.6142539 13.893617,5.34215717 11.0723404,5.34215717 L11.0723404,5.34215717 Z M11.0723404,14.0315622 C9.04680851,14.0315622 7.39574468,12.4020363 7.39574468,10.4029271 C7.39574468,8.40381801 9.04680851,6.77429208 11.0723404,6.77429208 C13.0978723,6.77429208 14.7489362,8.40381801 14.7489362,10.4029271 C14.7489362,12.4020363 13.1021277,14.0315622 11.0723404,14.0315622 L11.0723404,14.0315622 Z" id="Shape"></path>
                            </g>
                        </g>
                    </g>
                </g>
            </g>
        </g>
    </g>
</svg>