<svg xmlns="http://www.w3.org/2000/svg" width="31" height="21" viewBox="0 0 31 21">
  <g fill="#7F7F7F" fill-rule="evenodd">
    <path d="M14.2738869,13.8121352 C15.6273389,12.3477904 16.471718,10.3870235 16.471718,8.22771395 C16.471718,3.69811324 12.7838319,0 8.23916417,0 C3.69449647,0 0.00661039103,3.69811324 0.00661039103,8.22771395 C0.00661039103,12.7573147 3.69449647,16.4554279 8.23916417,16.4554279 C10.0893304,16.4554279 11.7904473,15.8473611 13.1687481,14.817331 L19.2903761,20.9353601 C19.4393816,21.084278 19.6256384,21.158737 19.8118953,21.158737 C19.9981522,21.158737 20.1968116,21.084278 20.3334146,20.9353601 C20.619023,20.6499195 20.619023,20.1783754 20.3334146,19.8805396 L14.2738869,13.8121352 L14.2738869,13.8121352 Z M1.49666537,8.22771395 C1.49666537,4.51716169 4.51402671,1.489179 8.23916417,1.489179 C11.9518991,1.489179 14.981663,4.50476646 14.981663,8.22771395 C14.981663,11.9506614 11.9643016,14.9662489 8.23916417,14.9662489 C4.51402671,14.9662489 1.49666537,11.9382662 1.49666537,8.22771395 L1.49666537,8.22771395 Z"/>
    <g transform="translate(19.195 3.114)">
      <rect width="11.759" height="1.673" y="10.039"/>
      <rect width="10.686" height="1.673" x="1.073" y="5.019"/>
      <rect width="11.759" height="1.673"/>
    </g>
  </g>
</svg>
