<svg xmlns="http://www.w3.org/2000/svg" width="20" height="20" viewBox="0 0 20 20" xmlns:xlink="http://www.w3.org/1999/xlink">
  <defs>
    <circle id="a" cx="10" cy="10" r="10"/>
    <mask id="b" width="20" height="20" x="0" y="0" fill="white">
      <use xlink:href="#a"/>
    </mask>
  </defs>
  <g fill="none" fill-rule="evenodd">
    <path fill="#7F7F7F" d="M4,6 L4,13.637971 L15.96,13.637971 L15.96,6 L4,6 L4,6 Z M9.98006162,10.7167639 L5.07455233,6.56655195 L14.8854477,6.56655195 L9.98006162,10.7167639 L9.98006162,10.7167639 Z M8.02592468,9.81764431 L4.58805697,12.7262228 L4.58805697,6.90904206 L8.02592468,9.81764431 L8.02592468,9.81764431 Z M8.47151945,10.1946968 L9.97991378,11.4708926 L11.4883081,10.1946968 L14.8885276,13.0714191 L5.07147247,13.0714191 L8.47151945,10.1946968 L8.47151945,10.1946968 Z M11.9339275,9.81778674 L15.3719184,6.90904206 L15.3719184,12.7262228 L11.9339275,9.81778674 L11.9339275,9.81778674 Z"/>
    <use stroke="#8C8C8C" stroke-width="2" mask="url(#b)" xlink:href="#a"/>
  </g>
</svg>
