<svg xmlns="http://www.w3.org/2000/svg" width="13" height="21" viewBox="0 0 13 21">
  <path fill="#7F7F7F" fill-rule="evenodd" d="M10.9812,0 L1.6188,0 C0.8388,0 0.2004,0.6378 0.2004,1.4184 L0.2004,19.581 C0.2004,20.3616 0.8388,21 1.6188,21 L10.9812,21 C11.7612,21 12.3996,20.3628 12.3996,19.5816 L12.3996,1.4184 C12.3996,0.6378 11.7612,0 10.9812,0 L10.9812,0 Z M4.8024,1.0224 L7.7976,1.0224 C7.8924,1.0224 7.9692,1.0992 7.9692,1.1946 C7.9692,1.2894 7.8924,1.3662 7.7976,1.3662 L4.8024,1.3662 C4.7076,1.3662 4.6308,1.2894 4.6308,1.1946 C4.6308,1.0992 4.7076,1.0224 4.8024,1.0224 L4.8024,1.0224 Z M6.3,20.2908 C5.9082,20.2908 5.5908,19.9734 5.5908,19.581 C5.5908,19.1886 5.9082,18.8718 6.3,18.8718 C6.6918,18.8718 7.0092,19.1886 7.0092,19.581 C7.0092,19.9734 6.6918,20.2908 6.3,20.2908 L6.3,20.2908 Z M11.4126,18.375 L1.1874,18.375 L1.1874,2.2494 L11.4126,2.2494 L11.4126,18.375 L11.4126,18.375 Z"/>
</svg>
