<svg id="Layer_1" data-name="Layer 1" xmlns="http://www.w3.org/2000/svg" viewBox="0 0 247.41 57.84"><defs><style>.cls-1{fill:#2a4f37;}</style></defs><title>john-lewis-logo</title><path class="cls-1" d="M0,52.1H2c6.14,0,6.7-3,6.7-9.42V0l6.26,6.13V44.4c0,6.78-2.35,12.16-8.74,13.45L0,52.1H0Zm34.62-7.52c-8.56,0-14.69-6.11-14.69-14.55,0-7.88,6.39-14,14.69-14,8.74,0,15.06,5.87,15.06,14,0,8.68-6.13,14.55-15.06,14.55M34.56,21.23A8.47,8.47,0,0,0,25.88,30c0,5.63,3.53,9.35,8.68,9.35,5.64,0,9.18-3.55,9.18-9.29,0-5.13-3.84-8.86-9.18-8.86M71.31,44h5.83V27.16c0-7.52-4-11.25-9.55-11.25a10.76,10.76,0,0,0-8.06,3.92V3.38H53.7V44h5.83V24.41c2.48-2.81,4.34-3.85,6.64-3.85,3.16,0,5.15,2.51,5.15,6.42V44Zm30.19,0h5.82V27.16c0-7.52-4.21-11.12-9.55-11.12a10.77,10.77,0,0,0-8.06,3.91V16.5H83.88V44h5.83V24.47c2.48-2.75,4.34-3.79,6.64-3.79,3.16,0,5.15,2.44,5.15,6.42V44Zm22.13,0h21.62l-3.45-5.69H129.24V5.65L123.63,0V44ZM171,41.18c-3.39,2.37-8.43,3.4-13.08,3.4-8.68,0-13.52-7-13.52-14.61,0-8.31,5.33-13.94,13-13.94,7.38,0,12.09,5,12.09,15.62H150.19c0.87,4.79,3.9,7.42,9,7.42a15.1,15.1,0,0,0,6.14-1.35S170,40.39,171,41.18M157.51,21c-4,0-6.39,2.26-7.19,5.9h13.39a5.94,5.94,0,0,0-6.2-5.9M202,44.58l12.41-28.12h-6.19L201.09,33l-6.91-16.48h-4.34L183,33l-7.18-16.48h-6.21l12.51,28.1h1.74L192,25l8.25,19.62H202ZM217.76,44h5.84V16.46h-5.84V44Zm-0.5-37.54a3.29,3.29,0,1,0,6.57,0,3.29,3.29,0,1,0-6.57,0M228.55,42a19.16,19.16,0,0,0,9.67,2.57c5.27,0,9.18-3.24,9.18-8.13,0-2.87-1.37-5.18-6.07-7.81-5-2.79-6.64-3.87-6.7-5.27S235.58,21,237.76,21a16.23,16.23,0,0,1,8.35,3.07V18.35A17,17,0,0,0,237.92,16c-5.8,0-9.18,2.81-9.18,7.52,0,3.79,3.29,6.18,6.45,8,1.61,1,3.23,1.77,4.41,2.63a3.56,3.56,0,0,1,1.88,2.75c-0.07,1.79-1.65,2.57-3.67,2.57s-5.46-1.11-9.25-3.74V42"/></svg>