<svg xmlns="http://www.w3.org/2000/svg" width="20" height="20" viewBox="0 0 20 20">
  <g fill="#7F7F7F" fill-rule="evenodd">
    <path d="M7.61810735,6.60173114 C7.50123882,6.71915126 7.42519858,6.79490471 7.36810735,6.85173114 C7.47408508,6.74565816 7.61810735,6.60173114 7.61810735,6.60173114 L7.61810735,6.60173114 Z"/>
    <path d="M11.004952,7.20970235 C11.2647896,7.51240505 11.3937939,7.86929871 11.3937939,8.28035241 C11.3937939,8.57446123 11.3047319,8.85737944 11.1275877,9.13083819 C11.0303609,9.28562092 10.9023037,9.43527204 10.742371,9.57799859 L10.2099913,10.0759186 C9.69939539,10.5506227 9.36960152,10.9711049 9.21878075,11.3391892 C9.06795998,11.706377 8.99254959,12.1905405 8.99254959,12.7907834 L10.1772667,12.7907834 C10.1772667,12.2619193 10.2408544,11.8620253 10.367148,11.5911323 C10.4934089,11.3202394 10.7696089,10.9900548 11.1957151,10.5987546 C11.7816887,10.0612657 12.1705633,9.65367426 12.3631554,9.37675322 C12.5557474,9.09983219 12.6529742,8.7386725 12.6529742,8.29321233 C12.6529742,7.55883678 12.3904259,6.9551316 11.8643821,6.48215863 C11.338371,6.00918566 10.6388083,5.77356474 9.76477937,5.77356474 C8.81991239,5.77356474 8.07674942,6.0495893 7.53525778,6.60170023 C6.99376615,7.15381116 6.72302033,7.8830242 6.72302033,8.79026674 L7.9077374,8.79026674 C7.92952117,8.24418389 8.02132654,7.82626744 8.18031214,7.53645557 C8.46376244,7.0161853 8.97618727,6.75561738 9.71752132,6.75561738 C10.3162648,6.7556483 10.7459962,6.90699965 11.004952,7.20970235 L11.004952,7.20970235 Z"/>
    <path d="M19.9875078,10.4594595 C19.9875078,5.23524112 15.5130168,1 9.9937539,1 C4.47445837,1 0,5.23524112 0,10.4594595 C0,15.6836469 4.47445837,19.9189189 9.9937539,19.9189189 C15.5130168,19.9189189 19.9875078,15.6836469 19.9875078,10.4594595 L19.9875078,10.4594595 Z M0.908517144,10.4594595 C0.908517144,5.70994524 4.97597498,1.85994524 9.9937539,1.85994524 C15.0115328,1.85994524 19.0789907,5.70994524 19.0789907,10.4594595 C19.0789907,15.2089737 15.0115328,19.0589737 9.9937539,19.0589737 C4.97597498,19.0589737 0.908517144,15.2089737 0.908517144,10.4594595 L0.908517144,10.4594595 Z"/>
    <rect width="1.325" height="1.31" x="8.965" y="13.836"/>
  </g>
</svg>
